<svg id="Layer_1" data-name="Layer 1" xmlns="http://www.w3.org/2000/svg" viewBox="0 0 421.205 211.199">
<style>
                    path, polyline, polygon, line, circle {
                        stroke: #e10600 !important;
                        stroke-width: 3.5px !important;
                        fill: none !important;
                        stroke-linecap: round !important;
                        stroke-linejoin: round !important;
                        filter: drop-shadow(0px 0px 5px #e10600) !important;
                    }
                </style>


<title>f1_australian_gp</title><polyline points="232.57 208.853 205.989 209.166 165.978 208.989 163.668 208.98 161.576 207.879 160.951 207.104 160.625 206.127 159.651 203.83 158.77 200.735 156.918 197.516 154.179 194.022 151.963 191.673 146.799 187.952 143.658 186.572 139.933 185.582 136.441 185.294 129.403 185.343 121.392 185.738 109.805 185.997 94.96 185.598 88.998 185.43 71.723 183.569 62.835 182.338 52.712 180.147 31.878 174.582 26.286 172.766 22.365 171.138 20.951 169.452 20.487 167.71 21.266 165.315 25.639 159.019 33.607 146.809 34.303 145.169 34.549 143.948 34.343 142.75 32.882 139.839 30.715 137.408 10.208 118.484 2.704 111.534 2.255 110.749 1.875 106.109 2.333 102.664 6.369 76.78 7.752 71.53 16.81 49.645 20.504 41.657 22.56 33.147 24.101 26.666 25.574 24.54 26.983 23.082 29.091 22.525 32.907 22.82 36.889 22.546 41.826 21.674 46.878 19.346 52.212 15.126 56.704 10.987 60.892 7.858 66.37 5.166 71.679 3.249 78.593 2.187 83.673 1.875 89.828 2.652 96.667 4.447 102.504 7.421 106.814 9.931 110.139 12.33 133.693 28.408 136.214 30.849 138.819 34.211 140.916 38.221 142.39 41.955 143.277 46.887 143.717 51.063 144.477 55.922 145.487 58.988 146.895 62.186 148.844 65.474 166.704 91.328 169.069 94.296 172.081 97.615 174.995 100.497 180.535 105.48 185.239 108.929 191.057 112.46 196.985 115.577 202.682 117.654 208.174 119.371 216.15 121.087 221.298 122.045 229.869 122.256 255.829 120.595 259.678 120.086 262.828 119.146 265.039 118.351 268.817 116.306 271.824 113.735 275.065 110.191 278.096 107.093 280.935 103.989 283.53 101.532 286.211 99.894 289.411 98.769 291.713 98.116 296.66 97.803 324.779 95.4 335.159 94.418 341.238 94.937 345.673 95.243 351.464 96.523 359.005 99.483 367.886 103.767 394.716 118.376 411.549 127.884 415.914 130.841 418.152 132.296 419.33 133.383 418.89 134.831 417.18 138.738 409.226 157.765 400.951 177.284 400.18 178.667 398.638 180.594 396.381 182.574 393.306 183.875 389.618 184.622 387.117 184.739 383.916 184.057 360.379 177.206 347.27 174.181 345.515 173.779 344.185 173.85 343.224 174.286 341.983 175.44 341.632 176.766 342.926 195.889 342.94 198.387 342.393 200.514 341.388 202.87 340.249 204.725 338.898 206.057 336.984 207.356 333.987 208.812 331.179 209.305 329.902 209.324 232.57 208.853"   stroke-linecap="round" stroke-linejoin="round" /></svg>