<svg id="Layer_1" data-name="Layer 1" xmlns="http://www.w3.org/2000/svg" viewBox="0 0 757.321 377.07">
<style>
                    path, polyline, polygon, line, circle {
                        stroke: #e10600 !important;
                        stroke-width: 3.5px !important;
                        fill: none !important;
                        stroke-linecap: round !important;
                        stroke-linejoin: round !important;
                        filter: drop-shadow(0px 0px 5px #e10600) !important;
                    }
                </style>


<title>f1_azerbaijan_gp</title><polyline points="651.262 350.185 699.949 374.652 703.27 375.32 706.738 374.61 709.249 372.937 712.015 369.5 725.609 344.735 740.028 310.093 755.571 278.45 755.251 275.658 753.722 273.038 708.189 248.753 653.081 218.56 574.086 180.58 505.535 148.218 499.005 147.82 494.08 151.97 463.904 206.857 460.532 209.92 455.222 209.821 415.795 191.748 392.155 182.647 358.233 172.141 355.184 172.314 352.931 175.097 347.769 185.973 345.254 187.871 341.769 187.525 326.85 185.272 242.664 167.152 227.269 165.079 221.596 163.516 218.613 159.688 219.372 153.811 248.323 105.856 248.65 102.741 247.044 99.743 244.246 96.422 243.106 88.865 241.318 85.135 238.516 82.039 235.653 79.215 234.185 74.773 235.333 70.966 242.457 59.949 243.031 57.069 242.635 53.899 240.197 50.718 214.086 35.18 167.519 14.606 134.189 3.195 126.583 1.75 118.783 2.201 109.163 4.627 61.055 25.766 55.193 29.377 5.077 77.945 2.7 81.903 1.75 87.496 16.827 155.768 22.133 174.013 25.595 183.522 28.378 188.146 33.15 192.201 38.213 193.614 42.454 193.765 80.909 185.812 89.849 183.958 97.99 183.625 169.402 193.075 176.871 192.461 182.799 190.306 210.242 173.304 216.315 170.805 223.453 170.028 229.667 170.913 324.52 191.18 336.397 194.706 348.731 199.58 359.717 204.52 393.042 221.612 423.783 235.867 496.601 272.489 526.746 286.841 602.191 324.972 651.262 350.185"   stroke-linecap="round" stroke-linejoin="round" /></svg>