<svg id="Layer_1" data-name="Layer 1" xmlns="http://www.w3.org/2000/svg" viewBox="0 0 858.664 1095.032">
<style>
                    path, polyline, polygon, line, circle {
                        stroke: #e10600 !important;
                        stroke-width: 3.5px !important;
                        fill: none !important;
                        stroke-linecap: round !important;
                        stroke-linejoin: round !important;
                        filter: drop-shadow(0px 0px 5px #e10600) !important;
                    }
                </style>
<title>f1_abu_dhabi_gp</title><path d="M908.89,677.02c-.21-26.35-.22-52.7-.3-79.06-.14-20.02.51-40.19-2.74-60.03-2.1-12.7-5.31-25.54-12.09-36.62-3.8-6.41-10.07-10.63-15.43-15.58-31.36-27.66-62.8-55.25-93.25-83.91-8.5-8.43-17.62-17.26-21.42-28.94-3.16-10.75,1.83-21.48,5.8-31.29,3.25-7.21,5.67-15.05,10.87-21.17,3.33-4.06,9.05-3.24,13.63-2.49,11.37,2.05,22.6,4.97,34.1,6.3,8.42.85,17.68-.22,24.43-5.75,7.04-5.52,10.24-14.71,10.15-23.44.52-44.34,1.06-88.68.64-133.02-.24-21.38-.45-42.78-1.84-64.13-.53-9.81-3.59-19.75-10.08-27.28-8.27-9.81-20.9-14.75-33.33-16.47-8.568-1.477-17.284-.624-25.9-1.354a4.86,4.86,0,0,1-2.632.714,5.932,5.932,0,0,1-.636-.036c-.269.113-.536.232-.807.338l-.033.015a4.973,4.973,0,0,1-2.524.683l-.206-.028A4.96,4.96,0,0,1,783,55a5.778,5.778,0,0,1-.683-.044A4.943,4.943,0,0,1,780,55.5a5.87,5.87,0,0,1-.7-.046c-.108.055-.223.1-.338.152a4.308,4.308,0,0,1-.958.76c.263-.014.525-.022.788-.046-1.49,1.61-3.93,1.52-5.87,2.21q-189.09,52.6-378.2,105.2c-.484-.154-.973-.284-1.461-.421A4.676,4.676,0,0,1,390,164.5a5.586,5.586,0,0,1-.815-.064l-.069.007A4.6,4.6,0,0,1,385.5,166a5.314,5.314,0,0,1-1.612-.239c-.63.134-1.263.249-1.9.32a4.526,4.526,0,0,1-3.085,1.4c.052.214.1.416.141.57q-65.49,18.3-131.03,36.45c-23.21,6.33-46.3,13.11-69.61,19.06-6.66,1.52-13.46,3.31-20.35,2.71a10.919,10.919,0,0,1-8.51-4.69c-2.98-4.6-3.85-10.16-4.47-15.5-2.25-23.12,2.34-46.12,3.37-69.16.132.725.251,1.452.377,2.177a133.517,133.517,0,0,1,1.89-14.117,5.655,5.655,0,0,1,.173-2,5.624,5.624,0,0,1,.472-4.16c-.464-2.952-.936-5.9-1.392-8.857-1.1-6.65-1.3-13.4-2.49-20.04-1.91-10.87-5.02-22.29-12.96-30.4-5.67-6.02-14.52-7.64-22.44-6.98C100.08,53.66,89.73,61.21,82.3,70.3,71.73,83.28,65.38,99.09,60.51,114.95c-9.02,30.35-13.33,62.76-7.68,94.17,3.01,15.68,8.19,31.3,17.64,44.33,35.42,54.19,71.72,107.85,110.24,159.9,20.57,27.98,48.09,51.11,80.05,64.95,16.9,7.17,34.88,12.43,53.31,13.14,18.15,1.43,36.84,5.72,51.67,16.8A55.938,55.938,0,0,1,387.8,544.9c5.12,59.77,11.81,119.4,18.36,179.03,1.77,20.64,1.62,42.55-7.74,61.52-7.13,14.63-20.39,25.16-34.63,32.41-20.43,10.39-42.46,16.97-63.81,25.1-17,6.05-33.53,14.08-47.45,25.7-5.79,5.07-11.76,10.31-15.79,16.93l-.26-.45c-6.46,9.18-11.79,19.36-14.1,30.42-1.49,6.36-1.26,12.93-1.64,19.41-1.81,42.71-4.15,85.4-6.5,128.09-.91,16.03-2.06,32.28,1.06,48.15,1.94,9.97,5.69,20.1,13.17,27.27,6.46,6.28,15.62,9.26,24.54,8.93,13.45-.46,26.08-6.12,37.41-13.02q95.055-51.405,190.01-102.99c14.76-8.16,29.96-15.6,44.01-24.96,12.27-8.11,23.01-18.26,33.19-28.81,14.9-15.48,28.68-31.98,43.22-47.8,15.73-16.72,32.45-33.11,52.71-44.29,13-7.23,27.59-11.24,42.36-12.69,16.68-1.93,33.64-.08,50.21-3.25,15.47-2.8,31.23-8.54,42.36-20.06,21.8-25.83,43.83-51.49,66.56-76.5,11.92-13.37,25-25.8,35.28-40.54,7.74-11.06,14.43-23.16,17.49-36.41C909.38,689.85,908.87,683.38,908.89,677.02Zm-13.07,20.86c-6.86,21.41-21.96,38.76-37.15,54.79-22.85,24.51-44.8,49.83-66.54,75.31-4.97,5.46-9.18,11.65-14.62,16.67-13.31,10.84-30.87,14.54-47.61,15.63-15.36.55-30.84.12-46,3.03a118.5,118.5,0,0,0-46.57,19.05c-40.39,27.48-66.93,69.7-102.76,102.14-16.95,15.51-37.98,25.25-57.89,36.26q-95.97,51.99-191.91,104.03c-11.03,6.57-23.56,12.63-36.75,11.22-8.71-.82-15.46-7.78-18.47-15.63-5.59-14.03-5.5-29.49-4.85-44.33,2.67-49.36,5.49-98.71,7.48-148.1.12-14.38,6.64-28.04,15.66-38.97,12.51-14.99,29.76-25.25,47.72-32.42,17.39-6.81,35.17-12.58,52.54-19.45,16.11-6.45,32.25-14,44.97-26.08a76.441,76.441,0,0,0,21.42-36.95c4.97-19.3,4.18-39.53,1.96-59.17q-8.9-77.82-16.27-155.82c-.86-7.57-.63-15.31-2.77-22.69a67.292,67.292,0,0,0-27.78-39.07c-15.73-10.7-34.76-15.33-53.5-16.91-21.9-.8-43.19-7.88-62.52-17.93-25.57-13.37-47.46-33.23-64.46-56.46C151.1,354.54,115.17,301.5,80.17,247.9c-12.16-16.74-17.06-37.65-18.44-57.99-1.44-24.25,2.55-48.56,9.45-71.76,4.06-13.24,9.19-26.39,17.33-37.7,5.05-6.9,11.57-13.24,19.89-15.88a21.939,21.939,0,0,1,16.03,1c5.52,3.91,8.08,10.57,9.97,16.81,3.98,14.48,4.17,29.66,3.69,44.57-1.01,26.34-6.44,52.56-4.23,79,.9,9.09,2.77,19.03,9.68,25.61,5.61,5.43,13.93,6.55,21.4,5.81,11.77-1.27,23.09-4.91,34.52-7.83q89.28-24.75,178.51-49.6c7.41-1.94,14.99-3.34,22.13-6.16Q592.07,120.41,784.02,67.01c9.93-3.3,20.63-3.15,30.92-2.05,11.46,1.36,23.74,5.75,30.21,15.93,6.15,9.53,5.19,21.33,5.96,32.16,2,60.3,1.01,120.66.41,180.98.14,5.67-1.27,11.92-5.84,15.68-4.64,3.71-10.98,3.96-16.64,3.42-11.86-1.39-23.4-4.65-35.19-6.48-6.65-1.11-14.09-.5-19.4,4.06-6.74,5.76-9.99,14.32-13.44,22.23-4.85,11.73-10.74,23.95-9.26,37,1.64,13.65,10.82,24.72,19.98,34.32,11.67,11.7,24.03,22.67,36.21,33.82,23.55,21.14,47.14,42.22,71.02,62.98,6.03,5.03,8.99,12.63,11.5,19.85,5.55,17.45,6.75,35.92,6.91,54.13.15,32.98.11,65.96.35,98.95C897.65,681.97,898.59,690.2,895.82,697.88Z" transform="translate(-50.291 -52.403)" /></svg>