<svg id="Layer_1" data-name="Layer 1" xmlns="http://www.w3.org/2000/svg" viewBox="0 0 759.492 421.853">
<style>
                    path, polyline, polygon, line, circle {
                        stroke: #e10600 !important;
                        stroke-width: 3.5px !important;
                        fill: none !important;
                        stroke-linecap: round !important;
                        stroke-linejoin: round !important;
                        filter: drop-shadow(0px 0px 5px #e10600) !important;
                    }
                </style>


<title>f1_austrian_gp</title><polyline points="600.428 290.335 565.635 326.09 479.851 415.34 473.107 420.103 465.842 418.655 448.712 408.042 403.298 389.146 352.872 366.73 310.993 345.355 271.285 323.333 197.629 272.798 177.713 259.505 151.108 245.724 115.082 232.729 59.801 218.725 8.722 205.902 4.247 202.784 1.75 198.12 4.068 193.689 11.542 187.186 35.877 168.487 61.426 151.816 88.611 135.904 115.833 123.013 148.521 109.965 250.169 73.024 295.046 53.621 387.155 3.624 395.974 1.75 403.468 4.075 408.491 8.603 411.537 14.677 412.472 21.581 411.183 39.815 409.192 52.6 403.044 72.004 393.36 88.38 379.421 104.551 362.367 118.891 341.893 129.408 257.97 162.912 248.448 170.351 241.868 178.348 237.62 187.774 235.227 198.409 235.991 208.893 239.087 218.995 243.51 227.288 250.047 235.331 256.298 240.428 332.224 283.084 342.543 286.181 356.132 286.523 369.04 282.274 379.374 274.71 388.056 262.992 391.708 252.98 393.561 239.553 395.139 226.653 397.954 214.751 403.112 203.475 409.76 191.235 420.981 177.344 434.031 165.112 551.317 91.492 641.339 34.556 651.103 29.001 662.502 26.67 673.703 27.789 684.56 31.869 695.433 39.344 751.739 91.064 756.274 96.175 757.742 101.093 757.584 105.679 753.752 115.799 747.564 127.329 738.87 141.084 728.35 155.569 714.935 171.136 600.428 290.335"   stroke-linecap="round" stroke-linejoin="round" /></svg>