<svg id="Layer_1" data-name="Layer 1" xmlns="http://www.w3.org/2000/svg" viewBox="0 0 512.039 288.669">
<style>
                    path, polyline, polygon, line, circle {
                        stroke: #e10600 !important;
                        stroke-width: 3.5px !important;
                        fill: none !important;
                        stroke-linecap: round !important;
                        stroke-linejoin: round !important;
                        filter: drop-shadow(0px 0px 5px #e10600) !important;
                    }
                </style>


<title>f1_british_gp</title><polyline points="499.04 137.905 509.794 191.423 510.289 201.093 508.667 208.754 506.016 213.923 499.99 220.413 492.792 224.888 483.552 228.89 467.775 234.827 452.299 240.83 434.951 245.258 423.985 247.548 397.273 251.962 374.4 255.124 365.548 257.057 357.553 261.401 346.578 269.147 340.213 272.606 335.173 273.05 329.144 272.522 303.959 266.097 294.163 266.592 287.361 268.777 281.801 272.728 270.215 283.168 264.65 285.917 257.847 286.919 251.458 286.09 244.012 281.349 238.199 274.881 231.515 265.884 226.264 258.893 220.517 254.182 209.655 249.242 185.861 239.794 57.456 187.575 21.471 169.766 12.573 164.586 7.641 160.166 4.099 154.747 1.915 148.936 1.75 143.38 2.453 137.125 4.132 131.724 7.26 126.742 12.625 122.211 14.749 120.79 26.851 113.5 37.523 105.668 46.143 97.585 51.372 92.127 56.697 86.077 65.363 75.482 88.344 51.434 89.46 49.164 89.454 46.197 87.743 43.44 78.691 35.43 77.286 32.5 77.267 29.414 78.042 26.72 81.114 22.687 84.644 18.382 90.485 12.855 96.923 8.585 103.637 5.327 111.295 2.345 114.458 1.75 117.714 1.987 120.938 3.391 128.111 6.859 219.767 62.129 240.08 74.573 243.931 77.21 248.002 82.108 250.224 88.256 250.963 93.407 251.151 100.625 250.353 120.886 250.316 127.548 250.786 134.373 252.716 141.997 255.307 148.825 259.526 154.75 296.944 192.349 299.049 194.841 301.093 197.941 301.794 201.291 301.148 203.97 299.285 206.565 297.026 208.241 273.199 218.027 269.956 220.535 268.156 223.684 268.376 227.109 270.473 230.684 273.763 232.682 277.123 233.85 285.505 235.879 292.597 237.451 299.496 238.464 306.108 238.666 313.037 238.492 320.104 237.22 323.136 235.457 326.822 231.374 433.956 83.952 435.838 80.072 437.85 74.733 438.058 68.434 436.595 62.061 432.671 55.863 429.508 53.831 425.071 52.663 402.604 52.451 397.89 51.434 393.852 48.578 390.883 43.917 389.507 38.617 390.384 32.463 392.779 27.924 395.842 24.975 399.549 22.535 403.761 21.702 408.429 22.022 416.238 24.456 452.317 37.863 459.476 42.656 465.556 47.429 473.092 54.426 478.213 60.249 482.457 67.855 485.486 74.514 488.962 88.964 499.04 137.905"   stroke-linecap="round" stroke-linejoin="round" /></svg>