<svg id="Layer_1" data-name="Layer 1" xmlns="http://www.w3.org/2000/svg" viewBox="0 0 378.837 240.563">
<style>
                    path, polyline, polygon, line, circle {
                        stroke: #e10600 !important;
                        stroke-width: 3.5px !important;
                        fill: none !important;
                        stroke-linecap: round !important;
                        stroke-linejoin: round !important;
                        filter: drop-shadow(0px 0px 5px #e10600) !important;
                    }
                </style>


<title>f1_brazilian_gp</title><polyline points="107.634 25.035 26.469 46.149 17.92 48.385 12.99 50.615 5.519 55.654 3.415 58.244 1.909 61.962 1.875 65.641 2.717 69.684 3.834 71.795 9.892 78.342 16.984 84.705 18.858 87.216 20.017 90.492 20.221 93.807 18.677 98.618 12.448 108.828 9.119 116.92 7.577 122.933 6.87 128.435 6.6 133.463 7.487 140.856 8.729 146.5 11.247 153.454 15.037 159.968 20.1 166.408 25.599 171.608 31.453 175.715 36.949 178.766 43.119 181.306 76.116 191.234 92.673 195.433 120.771 202.6 156.671 211.357 215.496 226.744 236.709 232.283 251.595 236.193 258.52 238.003 262.897 238.688 266.994 238.244 269.777 237.22 273.076 234.992 275.854 230.981 277.796 226.315 279.178 219.574 283.123 199.423 283.986 191.553 283.62 186.672 282.775 180.699 281.095 175.056 278.143 170.07 275.35 165.339 271.444 160.609 266.384 156.064 258.457 149.848 230.774 129.42 213.727 117.426 199.15 107.214 184.412 96.018 176.207 90.13 170.033 85.586 166.527 82.423 164.333 78.893 162.535 73.869 161.81 68.333 161.995 60.027 162.901 54.489 164.286 50.079 166.07 46.141 169.719 39.396 172.698 36.04 175.638 33.813 179.891 31.657 185.657 30.009 194.168 27.955 201.963 26.266 216.281 23.985 222.208 23.538 228.216 23.638 232.793 25.051 235.104 27.342 235.942 28.944 236.622 30.946 236.944 33.678 236.233 36.556 235.044 39.582 228.851 47.752 226.907 51.033 225.837 53.585 225.285 56.318 225.09 58.832 225.452 61.6 226.851 65.386 230.558 69.861 234.302 72.368 238.402 73.709 241.903 73.922 245.96 73.369 249.14 71.834 254.267 68.329 257.444 65.154 268.367 53.953 274.961 48.187 280.843 44.207 288.715 41.316 298.498 39.078 304.425 38.049 309.755 37.494 314.131 37.851 317.118 39.558 318.911 40.976 319.67 43.27 320.151 45.163 319.757 47.605 318.608 50.448 303.074 64.133 290.045 75.957 288.377 78 285.321 82.413 283.537 86.459 282.548 89.812 281.878 93.929 281.447 97.755 281.414 102.163 282.42 109.082 284.139 114.362 287.371 119.966 291.995 125.642 296.177 128.804 300.877 132.184 315.174 141.232 331.979 151.222 350.338 162.521 352.487 163.247 355.034 163.425 357.539 162.728 360.242 161.413 362.585 158.895 365.679 152.952 368.808 144.314 375.383 126.782 376.293 123.356 376.962 118.983 375.993 110.169 374.667 102.449 371.02 85.552 369.101 79.945 364.428 68.806 361.993 63.309 354.89 50.207 351.341 45.003 347.355 40.566 343.171 36.055 338.828 32.383 333.731 29.113 327.241 26.136 320.315 23.743 306.186 19.978 288.396 15.89 271.642 13.185 253.772 8.515 240.32 5.513 231.007 2.906 224.242 2.042 215.052 1.875 204.152 2.403 195.998 3.618 186.493 5.673 172.813 9.229 129.466 19.608 107.634 25.035"   stroke-linecap="round" stroke-linejoin="round" /></svg>