<svg id="Layer_1" data-name="Layer 1" xmlns="http://www.w3.org/2000/svg" viewBox="0 0 485.364 307.09">
<style>
                    path, polyline, polygon, line, circle {
                        stroke: #e10600 !important;
                        stroke-width: 3.5px !important;
                        fill: none !important;
                        stroke-linecap: round !important;
                        stroke-linejoin: round !important;
                        filter: drop-shadow(0px 0px 5px #e10600) !important;
                    }
                </style>


<title>f1_belgian_gp</title><polyline points="52.131 250.252 7.032 282.381 4.914 282.885 2.888 281.861 1.75 279.419 2.247 276.522 5.886 267.062 14.202 244.154 19.624 232.998 26.639 221.251 33.874 210.621 41.581 201.999 87.256 155.243 89.755 152.025 92.392 146.67 97.319 137.082 100.844 132.743 105.826 128.881 110.444 126.263 115.724 124.304 125.614 122.094 129.086 121.041 132.24 119.501 136.302 116.749 167.283 92.81 186.961 77.575 194.435 73.154 200.027 70.25 209.121 66.582 265.045 44.355 349.936 10.353 370.366 2.397 373.743 1.75 377.589 1.989 380.822 3.704 383.664 6.39 386.05 9.933 388.418 11.941 391.092 13.211 395.024 14.046 398.788 13.464 420.935 6.149 424.863 5.861 428.486 6.312 432.676 8.656 435.657 11.64 481.251 65.328 483.144 68.816 483.614 72.446 482.869 76.405 480.901 79.777 477.848 82.325 474.638 83.56 471.116 84.118 467.704 83.335 464.095 81.658 461.413 78.955 443.339 55.31 440.275 52.853 437.335 51.626 433.999 51.337 429.977 52.048 400.394 65.524 388.209 70 350.352 81.227 328.574 87.073 324.87 88.253 321 90.486 317.94 93.242 314.76 97.235 312.507 101.551 311.178 106.172 310.891 110.913 311.373 126.091 312.59 131.787 314.618 136.903 317.431 142.026 320.791 146.093 325.964 150.688 330.956 153.454 338.017 156.324 375.132 167.043 408.151 176.633 413.361 178.876 417.091 181.768 420.057 185.961 421.762 190.297 422.308 194.42 421.836 198.662 420.551 202.363 417.326 208.623 416.072 212.632 415.783 217.356 416.756 221.955 418.549 226.075 421.461 229.462 424.591 231.498 428.792 233.945 467.805 253.659 470.184 255.77 471.996 258.455 473.09 261.816 473.231 265.686 472.033 269.172 462.093 286.113 456.202 296.09 453.401 298.717 449.966 301.51 446.564 303.282 442.478 304.707 438.205 305.34 432.955 305.155 428.365 303.972 422.465 302.419 413.537 300.131 403.252 295.649 394.175 290.51 383.045 282.435 366.719 268.731 358.881 260.517 353.698 253.369 329.439 216.338 325.333 211.033 320.612 206.083 315.448 201.59 309.954 197.856 304.247 194.437 294.008 190.139 284.217 186.816 261.62 179.261 256.753 178.019 251.605 177.496 245.253 177.938 239.664 179.513 225.423 186.749 209.731 194.647 190.117 204.265 182.741 206.95 173.931 209.657 165.695 211.599 158.681 213.023 126.134 218.508 123.946 218.311 122.285 217.147 121.575 215.181 121.743 211.695 121.389 208.139 120.637 205.763 118.706 204.332 116.652 204.122 114.095 205.395 94.965 219.868 52.131 250.252"   stroke-linecap="round" stroke-linejoin="round" /></svg>