<svg id="Layer_1" data-name="Layer 1" xmlns="http://www.w3.org/2000/svg" viewBox="0 0 512.441 146.234">
<style>
                    path, polyline, polygon, line, circle {
                        stroke: #e10600 !important;
                        stroke-width: 3.5px !important;
                        fill: none !important;
                        stroke-linecap: round !important;
                        stroke-linejoin: round !important;
                        filter: drop-shadow(0px 0px 5px #e10600) !important;
                    }
                </style>


<title>f1_canada_gp</title><polyline points="373.378 32.443 402.5 34.874 423.978 36.619 439.62 38.715 452.015 42.12 483.834 55.929 487.988 56.426 491.261 54.531 498.563 46.063 500.597 44.556 503.739 44.491 506.519 45.718 508.986 47.976 510.403 51.296 510.691 55.038 509.361 59.414 506.841 63.917 500.096 74.445 495.078 81.483 488.757 87.721 481.87 93.426 462.739 105.609 450.608 112.61 447.188 113.59 444.693 113.32 442.37 112.487 437.644 109.182 434.574 107.612 431.831 107.161 429.262 107.634 400.664 119.448 396.795 121.905 390.4 126.889 386.112 129.729 379.358 132.203 372.771 132.73 366.258 132.514 361.258 131.611 325.575 120.643 322.578 119.733 319.834 120.281 317.3 122.039 315.161 125.787 314.822 131.59 314.265 134.82 312.058 138.293 308.996 140.889 306.079 142.51 302.699 143.756 299.817 144.262 294.323 144.484 287.735 144.118 279.61 143.519 273.128 141.805 245.124 135.698 230.402 130.971 218.602 127.004 205.844 122.002 195.939 117.484 188.227 113.633 152.198 92.128 149.136 89.434 148.424 86.69 148.63 84.118 149.433 80.474 149.357 77.434 148.612 74.297 146.461 70.499 143.599 67.25 139.366 63.818 103.413 42.464 83.501 32.272 69.092 26.514 54.089 21.318 49.085 19.926 43.69 18.924 7.005 15.449 4.852 15.05 3.091 14.26 1.75 12.089 2.168 8.817 3.431 7.054 5.405 6.146 6.845 6.095 14.809 7.622 26.952 10.057 31.007 10.779 35.792 10.597 47.652 8.676 58.176 6.966 123.681 2.093 132.061 1.75 303.185 17.025 310.265 17.667 312.385 18.673 313.651 20.693 313.868 23.67 315.069 25.904 316.799 27.194 319.332 27.837 349.052 30.194 373.378 32.443"   stroke-linecap="round" stroke-linejoin="round" /></svg>