<svg id="Layer_1" data-name="Layer 1" xmlns="http://www.w3.org/2000/svg" viewBox="0 0 622.952 402.605">
<style>
                    path, polyline, polygon, line, circle {
                        stroke: #e10600 !important;
                        stroke-width: 3.5px !important;
                        fill: none !important;
                        stroke-linecap: round !important;
                        stroke-linejoin: round !important;
                        filter: drop-shadow(0px 0px 5px #e10600) !important;
                    }
                </style>


<title>f1_chinese_gp</title><polyline points="272.883 73.478 287.382 31.656 291.061 24.711 296.218 16.83 303.071 11.274 308.255 7.797 316.491 4.098 323.609 2.203 330.588 1.75 337.808 2.723 344.782 4.169 350.818 7.802 357.431 12.447 361.961 16.68 365.864 21.4 368.288 27.055 369.38 33.424 367.497 44.716 362.194 52.818 355.628 57.558 351.05 58.313 346.812 58.077 342.403 55.455 337.142 50.163 329.677 41.526 326.214 38.309 321.299 37.312 314.806 38.347 308.215 43.123 305.069 51.051 305.049 56.375 307.547 61.445 310.234 66.321 314.307 72.104 319.544 77.433 326.227 82.441 332.845 85.187 341.687 85.953 347.332 86.212 360.848 84.752 394.082 78.97 423.222 76.797 444.516 73.188 471.911 69.238 483.246 69.786 490.59 71.421 547.256 85.993 564.455 90.061 581 94.653 584.611 96.699 586.187 100.531 585.243 105.567 579.556 111.516 570.277 115.484 561.532 118.163 551.333 119.944 537.309 122.656 521.974 122.925 491.379 121.081 450.197 118.492 438.253 118.497 428.128 119.692 418.174 121.95 409.554 126.614 401.659 132.438 394.899 139.27 388.894 148.446 385.195 157.597 382.897 167.349 382.678 178.461 383.895 189.932 386.977 200.351 396.501 215.673 410.897 239.15 414.486 247.469 415.917 254.642 415.583 262.244 413.789 272.643 409.384 280.698 404.468 286.887 398.341 291.333 391.438 294.319 385.941 296.006 380.104 296.889 338.049 292.514 331.17 293.666 326.593 297.54 324.413 302.667 323.324 307.925 334.162 338.163 337.022 343.152 340.877 345.675 345.648 346.894 438.94 351.351 495.165 352.792 557.859 355.033 561.493 352.126 562.942 347.738 562.167 342.21 560.2 335.005 557.895 327.842 557.847 322.527 559.444 316.966 563.415 312.695 570.851 310.692 580.905 309.133 587.881 309.629 593.697 310.952 601.252 314.628 607.287 319.211 612.668 324.318 617.103 330.021 620.596 339.81 621.202 347.393 619.702 356.399 616.414 364.922 613.146 371.238 608.035 378.198 599.632 386.121 592.971 390.534 585.341 394.63 571.439 398.003 555.574 398.612 373.719 398.449 261.341 399.048 202.865 399.25 150.442 398.712 83.217 399.424 12.243 400.855 6.671 400.009 2.745 397.123 1.75 392.403 5.142 388.07 15.821 381.584 23.304 378.659 31.76 375.474 161.379 368.667 164.846 366.867 168.717 361.897 202.313 269.054 272.883 73.478"   stroke-linecap="round" stroke-linejoin="round" /></svg>