<svg id="Layer_1" data-name="Layer 1" xmlns="http://www.w3.org/2000/svg" viewBox="0 0 443.751 378.75">
<style>
                    path, polyline, polygon, line, circle {
                        stroke: #e10600 !important;
                        stroke-width: 3.5px !important;
                        fill: none !important;
                        stroke-linecap: round !important;
                        stroke-linejoin: round !important;
                        filter: drop-shadow(0px 0px 5px #e10600) !important;
                    }
                </style>


<title>f1_dutch_gp</title><polyline points="388.133 205.537 338.814 324.764 320.07 368.517 315.83 373.351 310.083 376.07 303.815 376.875 298.007 375.667 292.537 371.941 288.727 367.259 286.699 361.418 286.545 354.923 291.984 342.286 307.625 304.222 312.664 286.499 314.692 268.021 313.616 250.701 315.245 243.652 319.086 238.919 326.768 232.675 335.034 229.403 357.865 220.491 363.735 216.06 365.332 209.515 365.547 203.624 363.181 197.632 358.756 193.353 353.225 191.087 344.744 191.288 302.923 204.631 283.502 208.256 266.755 208.81 251.944 207.703 237.932 205.336 227.945 202.265 211.597 198.791 196.51 197.482 185.816 199.698 172.941 203.071 157.454 210.875 139.263 222.758 126.94 228.598 115.97 231.77 101.497 233.382 90.097 233.13 42.56 230.21 31.59 227.693 21.419 222.607 14.197 216.415 9.557 209.819 5.04 202.266 2.643 193.556 1.875 184.342 2.735 175.33 5.378 166.166 11.093 156.197 32.941 126.39 40.992 113.148 59.245 73.725 68.002 70.654 78.819 69.395 89.174 69.898 101.373 71.962 114.034 76.292 127.585 82.787 141.013 92.354 149.31 101.567 150.816 107.207 149.495 113.148 144.332 120.599 136.957 125.332 126.11 129.31 107.581 132.23 89.728 136.711 73.442 142.955 64.438 149.299 61.027 156.902 60.566 165.209 63.486 173.466 71.014 180.968 77.774 183.335 112.897 187.614 148.266 187.513 185.847 182.982 217.62 174.976 237.286 168.783 258.981 160.727 279.722 151.916 296.623 141.896 302.83 139.228 307.255 140.084 311.403 145.823 315.828 154.181 321.913 157.957 329.718 158.26 337.338 154.685 341.395 149.197 343.269 143.306 341.394 131.323 324.37 31.934 324.001 25.288 325.876 18.49 328.887 12.751 331.806 9.075 339.028 4.191 346.74 2.429 379.436 1.875 386.104 2.227 395.814 3.738 405.862 7.01 414.128 10.787 425.129 19.447 432.289 29.013 437.175 37.22 440.739 48.297 441.876 58.014 440.862 73.874 437.851 85.152 390.683 199.596 388.133 205.537"   stroke-linecap="round" stroke-linejoin="round" /></svg>