<svg id="Layer_1" data-name="Layer 1" xmlns="http://www.w3.org/2000/svg" viewBox="0 0 420.307 396.621">
<style>
                    path, polyline, polygon, line, circle {
                        stroke: #e10600 !important;
                        stroke-width: 3.5px !important;
                        fill: none !important;
                        stroke-linecap: round !important;
                        stroke-linejoin: round !important;
                        filter: drop-shadow(0px 0px 5px #e10600) !important;
                    }
                </style>


<title>f1_hungarian_gp</title><polyline points="16.225 147.108 24.743 42.016 26.898 11.19 28.71 7.318 31.024 4.188 34.653 2.187 38.231 1.75 41.35 2.518 44.352 4.261 47.484 7.671 51.273 13.286 61.449 29.183 66.723 40.849 70.327 52.337 73.141 65.03 73.968 75.518 73.891 83.93 67.402 169.404 68.025 174.917 69.778 179.481 72.443 183.43 75.708 185.891 79.316 188.531 83.279 189.812 87.328 190.401 90.668 190.349 94.816 189.527 99.613 186.961 102.017 185.114 104.625 181.6 107.299 178.265 123.599 144.051 127.491 138.998 131.237 136.022 135.243 134.662 140.351 132.968 145.325 131.812 192.336 125.721 276.682 114.284 290.506 113.126 303.7 113.738 318.723 115.503 322.509 115.373 326.038 114.782 329.269 113.012 332.085 109.806 376.21 59.274 380.108 56.195 384.355 53.963 389.035 52.371 393.923 51.498 399.006 52.471 404.162 54.29 408.662 56.776 411.945 60.084 414.977 64.904 416.938 70.186 418.323 77.238 418.557 86.111 418.493 92.573 418.208 100.266 417.599 108.627 415.073 120.296 403.183 170.716 401.059 174.127 399.014 176.179 396.402 177.719 393.252 177.643 389.289 176.772 385.98 176.132 383.692 176.594 380.565 178.929 377.494 182.084 344.67 219.688 340.851 225.587 339.809 228.716 338.995 231.691 338.711 235.205 339.688 238.538 342.102 244.41 353.719 268.589 355.013 274.359 354.975 278.564 354.642 282.334 352.657 286.771 350.118 289.567 347.168 292.902 343.215 295.57 338.401 297.7 296.21 318.228 289.264 322.692 285.28 326.053 281.646 330.259 278.455 334.876 258.591 379.631 254.858 385.249 251.559 388.147 248.279 390.585 244.395 392.535 240.265 394.203 236.013 394.871 231.176 394.59 164.603 385.634 104.22 378.471 84.097 375.708 80.649 374.042 78.538 371.734 77.274 369.042 77.092 366.067 77.595 362.631 87.903 322.982 89.018 316.929 91.429 290.336 90.984 286.233 90.196 282.361 88.254 278.335 85.766 275.387 80.916 272.465 76.335 271.825 72.028 272.082 68.64 272.802 64.838 274.957 61.56 277.804 59.198 281.6 57.831 285.396 53.42 337.635 51.924 347.714 50.074 351.612 46.696 355.87 42.093 359.872 37.145 362.54 32.17 363.696 27.179 364.415 22.009 363.724 15.784 361.059 10.537 357.547 6.233 352.728 3.165 346.625 1.75 340.266 1.814 333.393 16.225 147.108"   stroke-linecap="round" stroke-linejoin="round" /></svg>