<svg id="Layer_1" data-name="Layer 1" xmlns="http://www.w3.org/2000/svg" viewBox="0 0 514.229 276.344">
<style>
                    path, polyline, polygon, line, circle {
                        stroke: #e10600 !important;
                        stroke-width: 3.5px !important;
                        fill: none !important;
                        stroke-linecap: round !important;
                        stroke-linejoin: round !important;
                        filter: drop-shadow(0px 0px 5px #e10600) !important;
                    }
                </style>


<title>f1_italian_gp</title><polyline points="331.561 269.633 232.402 266.045 190.817 264.247 189.107 263.918 188.076 262.783 187.774 261.326 187.917 259.506 187.962 257.799 187.757 256.23 186.86 255.196 185.615 254.413 184.53 254.251 183.326 254.309 161.034 261.354 154.93 262.495 149.39 263.088 143.327 262.953 113.776 262.166 108.921 261.541 104.389 260.703 99.498 259.344 94.197 257.484 89.01 255.296 83.15 251.973 78.284 248.495 72.716 243.759 67.741 238.58 63.121 232.756 59.068 226.474 55.076 219.346 52.185 212.145 49.514 204.198 47.483 195.161 46.183 185.873 41.289 149.675 36.458 105.29 36.099 102.651 35.289 101.308 34.029 100.203 28.76 98.988 27.295 98.413 26.271 97.404 25.594 95.624 24.199 89.643 22.445 83.141 18.969 73.959 2.936 32.991 1.916 29.433 1.75 26.031 2.205 22.724 3.039 20.35 4.261 18.047 5.618 15.863 8.382 13.072 10.588 11.474 13.327 10.282 16.424 9.593 36.128 6.838 69.758 1.79 72.785 1.75 74.757 2.192 76.487 2.952 77.758 4.272 79.571 6.732 95.62 33.251 109.116 54.796 117.391 68.214 121.583 74.705 127.249 81.967 131.634 87.174 135.958 91.63 157.899 114.793 174.301 131.189 207.917 165.898 228.182 186.791 231.348 189.616 233.325 190.686 235.256 190.808 237.56 190.695 242.593 189.696 245.347 189.347 249.341 189.152 251.533 189.369 254.34 190.093 257.654 191.206 261.034 193.16 264.553 195.86 267.478 199.002 269.655 201.553 271.31 202.854 273.512 203.806 277.553 204.578 295.89 205.911 315.436 207.292 490.566 216.818 496.875 217.265 499.83 217.857 502.898 219.197 505.429 221.102 507.718 223.324 510.028 226.496 511.535 230.03 512.479 234.131 512.394 237.653 511.837 240.965 510.563 244.85 509.054 248.639 507.268 251.49 504.894 254.908 501.08 258.809 497.594 261.528 493.836 263.937 489.347 266.076 484.365 268.113 479.234 269.745 474.811 270.607 468.087 271.67 461.334 272.107 454.938 272.526 442.28 273.466 431.179 274.222 419.11 274.594 403.246 273.985 353.016 271.226 331.561 269.633"   stroke-linecap="round" stroke-linejoin="round" /></svg>