<svg id="Layer_1" data-name="Layer 1" xmlns="http://www.w3.org/2000/svg" viewBox="0 0 675.94 428.285">
<style>
                    path, polyline, polygon, line, circle {
                        stroke: #e10600 !important;
                        stroke-width: 3.5px !important;
                        fill: none !important;
                        stroke-linecap: round !important;
                        stroke-linejoin: round !important;
                        filter: drop-shadow(0px 0px 5px #e10600) !important;
                    }
                </style>


<title>f1_japanese_gp</title><polyline points="583.192 246.542 621.989 301.876 667.279 367.696 671.354 374.599 673.361 381.612 674.19 387.851 673.6 393.854 672.475 398.42 665.113 416.092 661.933 420.609 657.58 423.876 654.014 425.535 647.756 426.535 642.189 425.88 636.223 423.321 630.879 418.345 625.789 409.089 599.824 361.056 594.6 355.811 589.89 353.873 582.691 352.009 567.348 350.633 559.804 347.785 554.665 343.502 550.954 338.142 549.408 333.079 544.645 306.252 542.307 299.292 538.171 293.14 533.136 288.786 526.644 285.069 519.837 283.198 502.008 281.459 493.893 279.202 488.465 276.05 482.992 271.062 479.222 264.423 477.118 257.801 476.413 251.652 476.951 245.883 478.456 241.069 489.182 217.82 490.912 213.064 491.664 206.676 491.069 202.367 489.266 196.048 486.253 190.546 480.046 185.34 472.386 180.333 463.267 174.768 455.168 170.721 449.079 168.47 440.435 166.289 430.515 165.317 422.667 164.993 416 166.199 410.525 168.02 401.992 170.864 392.927 175.019 382.295 182.35 373.828 189.978 337.825 227.003 335.95 229.159 330.623 229.957 282.426 230.349 279.375 229.701 276.278 227.218 275.255 223.351 274.93 220.14 270.108 189.645 265.003 132.69 263.998 122.217 263.971 116.959 264.931 111.623 266.426 106.131 269.107 100.538 272.076 95.008 281.252 77.923 282.287 75.26 281.907 72.721 280.634 70.307 278.274 68.402 275.459 67.256 272.652 67.225 269.296 69.1 266.356 72.681 253.499 91.217 243.144 105.14 236.459 113.352 231.056 118.682 226.506 121.973 218.73 127.149 210.7 130.632 202.453 132.385 188.262 133.293 174.941 132.76 165.006 131.189 153.307 127.603 140.56 122.857 126.401 116.203 117.532 111.176 109.849 105.65 102.84 99.462 95.532 91.737 88.124 82.052 83.38 73.741 79.25 64.723 69.909 31.947 64.655 17.502 61.866 11.66 57.789 7.185 52.225 4.101 45.418 2.23 37.125 1.75 29.374 2.23 21.74 3.277 14.191 5.685 7.846 9.743 3.77 15.223 1.911 20.764 1.75 27.917 2.939 33.35 4.871 38.883 8.562 43.684 15.964 51.855 25.31 61.022 34.41 70.407 46.071 80.837 59.494 91.691 73.29 101.979 88.917 111.062 102.85 119.688 117.314 126.606 140.874 136.977 166.703 149.563 198.073 163.519 229.28 176.268 250.821 185.756 278.585 199.059 285.005 201.257 291.513 201.989 298.534 201.25 305.405 199.941 317.894 196.266 329.484 191.602 339.305 186.593 349.593 179.871 369.059 164.425 395.717 143.356 403.064 138.225 408.247 135.186 412.97 132.586 416.306 130.948 418.039 130.931 420.234 132.066 425.408 137.507 429.158 141.198 432.358 142.416 435.491 142.075 439.323 139.96 445.74 135.031 452.854 130.756 460.611 128.207 469.829 128.165 478.327 129.339 487.198 131.937 495.933 136.196 503.292 140.501 512.365 147.814 520.342 156.549 528.393 167.162 583.192 246.542"   stroke-linecap="round" stroke-linejoin="round" /></svg>