<svg id="Layer_1" data-name="Layer 1" xmlns="http://www.w3.org/2000/svg" viewBox="0 0 378.864 224.409">
<style>
                    path, polyline, polygon, line, circle {
                        stroke: #e10600 !important;
                        stroke-width: 3.5px !important;
                        fill: none !important;
                        stroke-linecap: round !important;
                        stroke-linejoin: round !important;
                        filter: drop-shadow(0px 0px 5px #e10600) !important;
                    }
                </style>


<title>f1_las_vegas_gp</title><polyline points="332.479 16.98 320.448 6.631 317.921 4.436 315.191 2.881 311.968 2.4 309.094 3.806 307.278 6.055 305.832 10.07 305.277 13.88 305.549 17.54 306.627 20.946 311.263 28.371 318.252 35.189 320.063 37.826 321.457 43.635 321.444 46.783 319.621 52.507 317.927 55.683 315.484 58.647 309.006 63.604 303.481 65.655 138.893 69.684 136.386 68.71 135.097 66.752 135.182 32.793 134.952 22.613 133.63 17.319 131.743 15.199 125.79 9.293 121.935 6.655 117.793 4.658 114.17 3.221 109.472 2.403 103.884 1.875 100.608 2.1 99.468 3.977 98.995 8.905 97.937 10.642 95.683 12.158 92.137 12.801 89.535 12.568 81.219 7.939 79.012 7.149 75.19 5.216 71.221 6.004 68.729 9.915 68.038 17.117 67.554 70.969 64.983 90.897 61.918 97.518 54.564 104.898 42.211 111.327 19.97 121.22 13.62 127.448 9.359 133.865 7.08 140.353 3.987 150.502 1.875 161.993 2.284 163.552 3.458 165.03 7.394 166.135 10.096 167.278 33.517 178.783 47.454 185.952 54.522 189.69 61.335 193.536 73.305 200.17 89.365 206.926 101.475 210.444 115.401 214.294 125.367 216.866 135.279 218.752 145.311 220.222 160.008 221.72 168.573 222.01 178.778 222.291 206.388 221.651 222.162 221.29 234.125 221.043 296.69 222.31 328.784 222.474 344.794 222.23 364.093 222.534 365.629 221.425 366.116 219.938 365.994 216.396 366.952 213.766 372.753 207.788 375.607 202.597 376.837 195.731 376.989 165.916 375.884 126.936 375.552 94.858 375.084 79.195 373.086 66.394 370.312 53.021 368.658 49.556 366.845 46.764 364.68 44.546 332.479 16.98"   stroke-linecap="round" stroke-linejoin="round" /></svg>