<svg id="Layer_1" data-name="Layer 1" xmlns="http://www.w3.org/2000/svg" viewBox="0 0 702.385 445.731">
<style>
                    path, polyline, polygon, line, circle {
                        stroke: #e10600 !important;
                        stroke-width: 3.5px !important;
                        fill: none !important;
                        stroke-linecap: round !important;
                        stroke-linejoin: round !important;
                        filter: drop-shadow(0px 0px 5px #e10600) !important;
                    }
                </style>


<title>f1_mexico_gp</title><polyline points="122.247 3.327 295.72 6.561 351.935 7.187 410.859 5.445 439.375 5.574 513.094 7.112 641.681 10.728 668.358 12.853 673.017 14.068 675.608 15.801 677.196 18.89 677.852 21.823 676.852 53.665 677.782 56.349 679.581 58.661 693.744 64.275 697.835 65.827 700.272 68.815 700.635 71.836 700.324 91.66 698.271 109.649 693.806 127.39 688.237 143.542 642.044 248.926 585.593 366.454 582.04 374.462 581.98 379.039 583.331 382.694 585.762 385.199 607.985 395.438 610.276 397.207 610.964 400.404 609.844 403.334 606.682 406.993 571.394 440.904 567.755 443.114 564.562 443.981 561.492 443.328 553.852 439.673 552.296 436.849 551.578 430.859 552.726 290.282 551.968 286.072 549.692 282.312 546.648 279.344 542.142 276.873 519.913 266.581 511.706 260.736 506.717 256.764 501.25 248.817 495.001 236.877 489.405 229.967 483.427 225.361 477.076 222.305 468.657 219.766 403.544 217.68 396.178 216.305 391.327 213.069 388.929 210.829 386.76 207.541 375.378 182.828 372.125 178.111 367.41 173.891 356.311 168.877 305.909 149.058 291.574 144.97 271.204 142.574 109.812 138.59 106.416 137.76 104.424 135.956 102.537 132.902 101.728 128.698 94.191 88.255 87.561 60.446 85.973 57.356 83.35 55.359 79.923 54.264 75.83 55.239 71.864 59.801 67.231 68.959 64.28 71.84 60.608 73.786 56.183 74.101 50.861 72.427 44.631 70.378 38.772 69.307 11.519 69.563 6.891 68.613 4.581 67.115 2.438 64.039 1.75 60.841 2.572 52.893 5.195 42.201 9.221 33.062 15.394 21.945 23.154 13.917 33.442 7.092 43.167 3.184 52.884 1.75 67.293 1.797 122.247 3.327"   stroke-linecap="round" stroke-linejoin="round" /></svg>