<svg id="Layer_1" data-name="Layer 1" xmlns="http://www.w3.org/2000/svg" viewBox="0 0 372.469 257.282">
<style>
                    path, polyline, polygon, line, circle {
                        stroke: #e10600 !important;
                        stroke-width: 3.5px !important;
                        fill: none !important;
                        stroke-linecap: round !important;
                        stroke-linejoin: round !important;
                        filter: drop-shadow(0px 0px 5px #e10600) !important;
                    }
                </style>


<title>f1_madrid_gp</title><polyline points="27.299 171.856 17.293 134.036 15.706 131.86 6.929 132.235 5.439 131.206 3.773 125.101 2.044 117.986 1.875 111.632 4.499 103.502 9.349 97.476 54.126 63.998 77.578 45.954 86.992 40.329 93.436 36.845 97.383 35.111 109.618 30.752 122.918 28.106 133.077 27.754 144.087 28.222 154.662 31.16 161.308 34.412 163.584 35.759 165.343 35.61 166.439 33.348 168.048 31.428 170.239 31.505 172.514 32.835 175.123 33.506 180.127 32.576 189.151 29.136 195.284 26.325 200.189 22.586 203.745 19.486 208.047 17.6 223.678 12.324 229.433 9.668 232.108 6.765 234.13 6.471 236.104 8.596 239.529 12.383 243.274 14.236 246.813 13.937 250.989 12.184 262.099 4.858 265.277 4.082 287.27 1.978 295.932 1.875 299.755 4.106 304.518 9.302 310.112 15.075 315.135 17.082 320.946 16.451 324.354 15.41 342.049 6.268 348.059 4.99 354.313 4.969 360.11 7.155 365.248 10.798 368.799 16.621 370.361 23.12 370.594 30.238 367.642 37.486 362.249 44.696 355.764 49.321 347.891 51.141 340.632 51.248 332.815 49.11 325.177 45.539 321.455 43.684 293.633 25.007 276.794 15.986 273.933 15.335 270.093 16.43 266.288 21.213 257.114 37.018 252.307 43.548 248.102 46.58 243.665 48.233 221.057 50.145 216.69 51.266 211.71 54.119 206.644 58.117 202.785 62.257 200.05 67.72 198.555 73.97 200.92 101.939 203.472 106.552 206.675 111.25 207.519 113.61 205.782 115.927 195.052 124.48 179.207 135.373 175.188 137.62 171.852 140.334 169.441 144.999 169.05 149.354 172.588 165.623 173.115 173.487 171.026 181.694 166.223 187.454 161.619 190.398 111.442 203.809 105.26 205.224 102.32 206.627 102.209 209.943 106.178 214.454 107.177 217.291 111.223 236.58 109.478 238.512 97.011 243.398 80.592 248.863 58.647 254.533 52.856 255.407 48.912 252.557 47.353 247.72 27.299 171.856"   stroke-linecap="round" stroke-linejoin="round" /></svg>