<svg id="Layer_1" data-name="Layer 1" xmlns="http://www.w3.org/2000/svg" viewBox="0 0 528.75 212.485">
<style>
                    path, polyline, polygon, line, circle {
                        stroke: #e10600 !important;
                        stroke-width: 3.5px !important;
                        fill: none !important;
                        stroke-linecap: round !important;
                        stroke-linejoin: round !important;
                        filter: drop-shadow(0px 0px 5px #e10600) !important;
                    }
                </style>


<title>f1_miami_gp</title><polyline points="260.967 60.114 332.696 104.901 333.919 108.206 333.395 111.277 331.263 115.36 315.987 126.712 311.233 131.844 309.66 141.097 311.233 150.894 309.73 162.985 306.06 170.722 292.217 181.802 276.452 187.245 266.21 189.539 251.109 189.888 239.259 187.75 225.382 181.53 154.981 139.308 144.879 133.204 139.705 132.31 133.763 131.844 127.82 132.621 120.27 134.993 113.908 138.57 107.406 143.818 100.625 148.328 91.746 149.805 83.741 149.067 75.142 144.907 67.067 137.675 59.727 130.405 51.477 126.323 42.983 124.612 32.741 126.401 23.338 129.356 15.438 133.088 9.6 138.492 4.042 147.201 1.875 156.453 2.12 164.19 3.833 169.4 6.664 172.977 12.432 176.126 19.388 176.126 27.987 174.221 37.6 174.26 57.42 178.458 93.704 185.806 131.211 184.718 188.469 182.346 204.304 187.361 223.879 194.359 239.644 199.919 260.827 206.645 282.849 210.338 304.976 210.61 328.222 206.8 349.44 199.336 397.923 181.646 426.063 170.916 439.626 164.89 474.302 146.462 492.968 134.526 496.708 129.472 495.485 125.273 492.094 122.008 483.53 116.837 477.552 112.366 474.302 105.834 473.603 99.031 475.525 90.75 480.139 86.123 485.557 83.946 501.602 84.918 509.607 83.83 513.137 81.536 518.521 76.287 526.875 61.358 526.316 58.092 522.261 56.46 518.591 53.738 518.451 48.179 525.092 26.757 524.568 23.102 521.562 20.653 504.853 19.137 263.554 10.584 71.157 1.875 65.529 3.352 64.341 7.784 66.263 13.305 72.94 19.215 83.322 27.107 94.473 33.094 103.561 35.388 111.566 34.727 121.354 31.189 144.18 20.459 156.974 17.037 172.704 15.677 188.224 17.854 202.87 23.958 260.967 60.114"   stroke-linecap="round" stroke-linejoin="round" /></svg>