<svg id="Layer_1" data-name="Layer 1" xmlns="http://www.w3.org/2000/svg" viewBox="0 0 593.823 218.438">
<style>
                    path, polyline, polygon, line, circle {
                        stroke: #e10600 !important;
                        stroke-width: 3.5px !important;
                        fill: none !important;
                        stroke-linecap: round !important;
                        stroke-linejoin: round !important;
                        filter: drop-shadow(0px 0px 5px #e10600) !important;
                    }
                </style>


<title>f1_monaco_gp</title><polyline points="439.815 111.299 443.51 107.63 447.943 105.869 454.828 104.585 460.084 104.266 474.191 104.91 549.171 105.8 554.504 105.782 558.244 108.738 560.194 114.197 559.859 119.215 557.412 124.427 553.155 128.195 549.422 131.028 546.578 133.63 544.214 138.173 542.948 142.385 540.153 150.541 537.069 156.922 534.777 160.194 533.954 162.868 534.915 165.481 537.464 167.463 540.761 167.941 543.955 166.511 545.43 163.571 545.464 158.72 550.671 140.701 552.585 137.294 555.345 135.261 558.01 134.466 560.727 134.039 566.179 136.832 572.854 142.406 576.919 145.128 581.195 147.851 586.855 151.816 591.413 157.283 592.073 161.434 588.158 165.973 559.73 184.759 528.226 200.927 506.949 209.496 490.509 213.831 469.685 215.978 450.22 215.218 424.748 212.165 397.935 200.877 383.422 193.106 355.998 177.734 339.444 166.042 317.522 146.973 304.585 133.853 297.466 127.073 294.229 127.365 292.162 128.697 289.504 129.894 286.508 130.521 282.964 128.034 278.805 123.907 278.043 116.577 276.182 113.594 241.044 76.117 223.315 57.696 206.767 40.918 202.222 36.254 199.115 33.201 194.711 32.552 184.073 34.193 174.102 36.272 164.612 39.021 158.386 41.713 148.121 47.203 131.992 58.632 128.122 61.665 126.227 64.804 125.267 69.051 125.193 76.98 124.495 82.766 122.145 86.741 117.612 90.91 87.695 121.336 82.792 127.143 81.227 128.979 78.578 130.677 75.453 130.634 70.749 128.981 66.741 126.828 63.867 127.723 59.452 131.859 51.082 143.611 45.208 153.063 41.147 161.315 36.849 173.548 34.633 186.624 35.428 194.489 36.982 202.824 37.829 206.942 37.197 209.784 33.068 215.494 29.564 216.688 25.872 215.071 13.597 204.93 7.475 198.756 4.084 194.229 1.75 189.705 1.845 185.724 2.338 182.982 6.095 180.182 8.724 177.38 11.617 173.474 15.239 160.201 19.838 149.073 23.167 140.585 31.896 127.863 57.94 94.883 66.667 84.704 76.69 74.763 91.525 60.553 111.686 43.281 125.701 33.218 136.854 26.125 148.834 19.301 158.077 15.815 166.723 13.164 171.811 11.238 175.979 9.109 181.494 4.742 184.949 2.109 187.856 1.75 191.342 3.667 198.163 9.543 202.992 15.68 210.295 23.597 220.518 34.602 230.124 43.965 257.75 65.493 272.881 77.75 285.194 90.099 292.869 99.122 300.929 104.666 326.714 118.929 337.425 125.619 350.477 137.234 360.408 147.635 370.185 157.333 376.82 161.97 386.97 166.115 398.487 167.755 406.889 167.312 414.102 164.623 420.22 159.823 425.39 154.485 430.248 147.439 434.227 139.856 434.517 132.229 435.555 124.369 435.914 120.656 436.532 117.011 439.815 111.299"   stroke-linecap="round" stroke-linejoin="round" /></svg>