<svg id="Layer_1" data-name="Layer 1" xmlns="http://www.w3.org/2000/svg" viewBox="0 0 437.528 322.042">
<style>
                    path, polyline, polygon, line, circle {
                        stroke: #e10600 !important;
                        stroke-width: 3.5px !important;
                        fill: none !important;
                        stroke-linecap: round !important;
                        stroke-linejoin: round !important;
                        filter: drop-shadow(0px 0px 5px #e10600) !important;
                    }
                </style>


<title>f1_qatar_gp</title><polyline points="201.472 316.402 92.183 314.044 49.653 313.32 42.936 311.028 37.109 306.66 33.548 301.596 32.039 295.986 31.957 288.648 34.584 281.809 39.065 276.505 92.643 246.968 96.34 243.331 99.821 237.727 101.671 230.049 99.756 221.893 96.081 215.744 91.02 211.856 50.895 190.171 45.881 186.428 42.176 182.144 38.99 177.412 37.128 172.187 2.607 66.314 1.75 61.079 3.382 54.687 6.006 49.139 10.508 44.553 15.41 41.765 44.797 33.094 49.917 33.175 55.797 35.26 60.314 38.13 64.107 42.034 66.579 47.179 88.593 115.723 90.906 119.482 94.495 121.701 98.285 122.586 101.853 121.892 105.524 119.964 108.483 116.098 109.31 112.693 109.765 107.898 122.563 17.613 124.8 12.51 129.052 7.074 134.167 3.389 140.319 1.75 146.653 2.214 152.091 4.085 156.349 6.65 159.65 10.428 162.689 16.172 163.6 20.027 164.984 28.426 168.639 38.993 172.936 48.518 178.231 57.44 185.355 66.277 190.455 71.912 200.203 80.414 203.854 84.942 206.042 90.354 206.625 95.158 206.059 100.829 192.235 148.388 192.29 153.28 193.163 157.505 196.344 161.49 199.955 164.426 206.385 167.141 214.934 166.017 227.271 162.759 243.303 156.018 257.616 147.584 269.468 137.461 279.493 126.289 287.715 114.472 294.216 100.138 323.124 33.808 327.616 28.786 334.543 23.986 341.34 21.15 350.53 20.12 385.743 21.108 391.056 22.593 395.267 25.013 399.302 28.194 403.19 34.426 426.523 77.702 427.607 82.087 427.129 87.379 425.946 92.461 422.364 98.164 366.706 161.547 363.777 166.645 362.366 172.576 362.832 178.567 364.842 183.759 433.245 289.464 435.578 296.135 435.778 302.286 433.079 309.477 429.662 314.138 424.812 317.818 417.658 320.292 201.472 316.402"   stroke-linecap="round" stroke-linejoin="round" /></svg>