<svg id="Layer_1" data-name="Layer 1" xmlns="http://www.w3.org/2000/svg" viewBox="0 0 727.364 404.361">
<style>
                    path, polyline, polygon, line, circle {
                        stroke: #e10600 !important;
                        stroke-width: 3.5px !important;
                        fill: none !important;
                        stroke-linecap: round !important;
                        stroke-linejoin: round !important;
                        filter: drop-shadow(0px 0px 5px #e10600) !important;
                    }
                </style>


<title>f1_singapore_gp</title><polyline points="691.086 253.309 665.845 357.633 662.166 370.974 658.451 376.836 652.815 381.024 627.247 399.412 622.806 402.311 619.192 402.611 615.156 401.582 606.495 397.722 566.572 379.783 506.277 348.866 499.105 343.713 495.251 338.729 492.952 332.885 492.976 322.978 495.805 314.267 498.016 309.285 497.408 306.017 488.856 302.024 479.843 298.321 434.49 277.824 306.592 220.585 291.52 212.623 281.602 205.363 272.397 195.343 241.746 136.815 228.452 112.271 226.168 108.359 221.738 105.778 215.436 104.576 209.883 105.821 205.892 107.551 187.692 129.827 175.919 147.227 142.586 200.776 74.986 308.332 72.778 310.281 70.28 311.77 66.251 312.843 62.16 312.26 57.577 310.378 55.777 308.693 53.045 299.883 50.627 290.26 49.972 280.15 47.329 274.29 33.417 250.442 26.972 237.343 23.053 228.892 21.286 221.97 22.481 207.205 25.426 201.223 28.363 196.928 33.218 192.498 33.126 188.496 28.712 184.813 20.599 178.014 14.55 169.793 7.358 159.09 2.321 149.451 1.75 142.756 3.532 134.342 5.907 127.264 18.693 117.079 71.286 73.338 139.076 16.782 151.195 6.514 160.215 2.929 163.818 1.75 173.664 3.441 179.823 11.529 187.293 22.572 212.335 82.791 215.35 86.168 218.742 86.599 223.75 82.227 252.787 56.191 289.367 27.226 295.758 22.745 300.216 22.828 306.063 28.696 309.207 32.649 400.786 146.195 417.199 160.973 429.597 168.606 592.003 242.399 598.943 243.613 608.829 242.928 617.614 240.71 625.143 234.334 629.214 227.093 634.967 208.367 639.739 181.737 640.729 136.151 640.104 126.111 640.182 118.032 642.086 108.849 646.35 97.774 658.275 74.074 666.227 65.994 674.266 62.381 679.318 63.801 683.287 66.671 685.991 74.187 687.302 78.659 688.492 83.142 691.576 88.763 700.094 97.993 707.993 103.834 719.475 107.031 724.283 111.507 725.614 116.686 724.786 123.834 708.207 180.217 691.086 253.309"   stroke-linecap="round" stroke-linejoin="round" /></svg>