<svg id="Layer_1" data-name="Layer 1" xmlns="http://www.w3.org/2000/svg" viewBox="0 0 326.487 211.06">
<style>
                    path, polyline, polygon, line, circle {
                        stroke: #e10600 !important;
                        stroke-width: 3.5px !important;
                        fill: none !important;
                        stroke-linecap: round !important;
                        stroke-linejoin: round !important;
                        filter: drop-shadow(0px 0px 5px #e10600) !important;
                    }
                </style>


<title>f1_saudi_arabian_gp</title><polyline points="251.749 53.97 208.168 94.039 207.735 95.428 208.004 96.341 211.068 99.777 211.28 100.976 211.22 102.156 210.536 103.348 209.302 104.382 205.024 105.415 194.505 106.513 193.024 106.795 190.333 107.9 183.547 112.264 162.252 126.306 157.726 128.694 156.549 130.195 156.729 134.975 156.366 137.426 155.725 139.507 153.366 142.988 150.588 145.515 146.701 147.438 143.378 148.236 141.21 148.157 135.704 147.223 132.927 147.228 130.29 147.817 126.718 149.74 121.103 153.943 119.105 156.928 118.654 158.463 117.965 161.98 117.547 163.778 116.865 165.277 114.351 167.273 102.23 172.335 99.428 173.074 94.962 171.944 92.633 170.522 88.79 166.443 87.43 165.379 84.003 164.885 78.281 166.322 73.689 167.354 66.835 168.135 62.479 168.387 55.824 170.11 51.475 171.62 46.825 173.878 28.449 182.702 4.968 194.706 3.658 195.942 2.314 198.193 1.875 200.508 2.118 203.661 3.754 206.218 5.496 207.622 7.573 208.924 11.145 209.185 15.459 208.198 18.958 206.446 21.532 204.47 26.923 197.196 29.353 193.5 33.5 189.495 36.309 187.415 40.452 184.981 43.898 183.637 48.018 182.319 52.751 181.871 56.956 181.915 62.109 182.236 66.921 182.229 71.684 181.06 74.685 179.68 77.015 178.657 79.144 178.722 81.211 179.321 83.206 180.813 86.348 184.539 90.225 186.435 93.144 186.829 95.326 186.485 99.529 185.47 104.06 183.695 107.083 182.368 110.343 180.598 113.711 178.473 117.561 174.998 124.17 167.482 129.386 162.069 134.195 158.327 138.761 155.615 143.492 153.768 146.454 152.79 152.533 150.058 154.114 148.949 156.74 147.319 161.036 143.464 163.561 140.587 166.075 137.083 169.852 131.519 172.836 127.578 176.308 124.07 181.882 119.546 186.326 116.933 191.477 114.348 196.366 112.37 201.006 110.994 207.325 109.448 209.641 109.185 211.754 108.949 213.376 108.083 214.872 106.857 216.184 104.758 216.813 102.837 218.043 98.406 219.318 95.923 221.394 93.228 230.478 86.64 233.06 85.475 236.486 85.139 241.381 85.511 258.077 86.498 263.021 86.341 268.483 85.557 272.143 84.549 275.34 83.391 282.189 79.661 288.464 74.737 292.256 71.657 295.876 68.637 300.336 64.817 304.748 60.019 309.665 53.662 312.109 49.62 314.816 44.71 317.931 38.129 320.48 30.259 321.725 23.376 324.612 8.853 324.54 5.224 323.077 3.437 321.153 2.145 318.685 1.875 316.65 2.892 304.935 11.512 280.536 28.886 271.52 36.306 264.201 42.734 251.749 53.97"   stroke-linecap="round" stroke-linejoin="round" /></svg>