<svg id="Layer_1" data-name="Layer 1" xmlns="http://www.w3.org/2000/svg" viewBox="0 0 1403.445 421.816">
<style>
                    path, polyline, polygon, line, circle {
                        stroke: #e10600 !important;
                        stroke-width: 3.5px !important;
                        fill: none !important;
                        stroke-linecap: round !important;
                        stroke-linejoin: round !important;
                        filter: drop-shadow(0px 0px 5px #e10600) !important;
                    }
                </style>
<title>f1_spanish_gp</title><path d="M1399.443,283.5c.135-9.592-12.4-18.367-22.6-18.744-15.686-.124-23.878-4.257-22.629-16.919,3.672-37.224,8.91-73.892,11.209-111.243,1.09-17.717-20.618-22.7-34.686-28.218-39.6-15.527-74.725-26.213-117.357-41.665-10.208-3.7-22.133-6.783-32.3-4.785-12.164,2.389-26.5,10.351-34.272,19.637-8.58,10.255-15,24.676-17.317,38.562-1.674,10.042,2.42,23.316,7.046,31.528,10.68,18.96,29.325,26,48.132,32.3,17.184,5.756,25.951,8.532,29.909,19.142,11.725,31.428,20.867,61.876,33.644,97.8,7.693,21.635-15.264,35.056-33.451,24.492C1076.9,245.306,951.975,168.172,813.8,83.455c-18.281-11.208-38.735-21.126-59.818-23.927-13.068-1.736-29.465-1.171-41.244,1.91-14.142,3.7-31.143,12.986-40.749,24.773-46.623,57.2-70.642,100.274-112.288,161.895-9.323,13.793-14.75,31.464-12.69,47.106,5.222,39.645-11.308,67.858-37.885,69.389-43.847,2.526-72.724-1.117-113.28-2.333-26.944-.808-52.893-11.407-76.917-24.2-46.742-24.9-88.451-49.339-131.951-78.041-11.479-7.575-21.506-19.761-24.205-31.456-2.086-9.042,2.985-24.529,9.849-31.6,6.3-6.487,16.468-9.739,26.247-9.5,69.993,1.722,131.067.862,202.874-2.32,14.927-.661,35.983-11.878,47.021-21.607,12.49-11.008,22.571-21.584,29.486-36.8,5.049-11.107,8.883-25.252,7.251-37.087-1.558-11.3-9.467-27.212-16.4-34.84-8.217-9.044-20.434-16.656-33.353-16.822-89.187-1.145-175.087-1.318-263.61,1.269-21.919.638-52.448,10.1-71.867,19.988C76.617,71.294,56.634,84.721,38.7,103.793,25.129,118.22,15.29,138.618,9.984,157.63a118.692,118.692,0,0,0-2.538,49.051c2.625,16.357,8.884,28.351,17.245,42.356,7.59,12.714,19.01,26.078,32.3,32.724,28.182,14.091,60.523,23.321,89.582,36.677,37.217,17.106,46.832,37.672,46.38,77.268-.274,24.015,5.35,49.527,51.516,50.67,231.148,5.727,460.057.264,691.353.774,130.8.288,239.607.867,367.875.773,34.316-.026,59.907-21.683,72.242-36.108,11.194-13.091,19.481-34.961,20.338-52.786C1397.537,332.878,1398.528,307.819,1399.443,283.5Z" transform="translate(-1 -32.197)"   stroke-linecap="round" stroke-linejoin="round" /></svg>