<svg id="Layer_1" data-name="Layer 1" xmlns="http://www.w3.org/2000/svg" viewBox="0 0 703.5 445.149">
<style>
                    path, polyline, polygon, line, circle {
                        stroke: #f97316 !important;
                        stroke-width: 3.5px !important;
                        fill: none !important;
                        stroke-linecap: round !important;
                        stroke-linejoin: round !important;
                        filter: drop-shadow(0px 0px 5px #f97316) !important;
                    }
                </style>


<title>motogp_austrian_gp</title><polyline points="468.304 397.457 420.086 410.263 300.64 442.778 292.407 443.399 286.918 438.426 277.671 420.521 248.411 380.982 216.66 335.847 191.707 295.996 168.949 256.706 131.71 175.513 121.45 153.878 105.701 128.389 81.465 98.734 41.228 58.324 3.988 21.085 1.75 16.111 2.003 10.827 6.268 8.216 16.021 6.475 46.505 2.931 76.99 1.75 108.487 2.061 138.465 4.983 173.214 10.578 279.402 31.094 327.873 37.497 432.584 41.911 441.113 44.833 446.349 50.677 448.333 57.143 447.826 63.919 445.082 70.323 434.611 85.305 426.335 95.252 411.093 108.743 394.373 117.82 374.107 124.534 352.109 128.078 329.14 126.586 239.925 112.225 227.934 113.717 218.18 117.198 209.694 123.104 202.178 131 197.449 140.387 194.916 150.645 194.452 160.033 195.929 170.29 198.674 177.875 241.909 253.473 249.171 261.43 260.656 268.704 273.914 271.688 286.665 270.507 300.134 264.912 308.409 258.198 316.896 247.629 324.876 237.371 333.405 228.605 343.622 221.58 355.613 214.493 372.375 208.338 389.855 204.546 528.302 201.624 634.786 199.013 646.017 199.261 656.995 203.116 666.03 209.83 673.25 218.907 678.739 230.905 700.483 304.203 701.75 310.917 700.483 315.891 697.992 319.745 689.506 326.459 678.274 333.174 663.75 340.51 647.284 347.535 627.777 354 468.304 397.457"   stroke-linecap="round" stroke-linejoin="round" /></svg>