<svg id="Layer_1" data-name="Layer 1" xmlns="http://www.w3.org/2000/svg" viewBox="0 0 1737.481 487.674">
<style>
                    path, polyline, polygon, line, circle {
                        stroke: #f97316 !important;
                        stroke-width: 3.5px !important;
                        fill: none !important;
                        stroke-linecap: round !important;
                        stroke-linejoin: round !important;
                        filter: drop-shadow(0px 0px 5px #f97316) !important;
                    }
                </style>
<title>motogp_san_marino_gp</title><path d="M1021.98,736.32c37.35-2.02,74.68-4.5,112.03-6.54,119.66-.14,239.33.13,358.99-.14,22.15-5.21,43.76-12.73,66.04-17.51,5.53-1.06,11.19-2.51,16.85-1.66,12.16,3.33,20.52,13.64,31.51,19.11,20.18.4,40.41.05,60.6.17,10.23-.14,20.48.27,30.7-.2,24.74-4.44,48.54-14.84,68.1-30.71,12.22-9.53,23.31-21.2,29.32-35.69,7.68-18.35,9.46-38.51,10.33-58.19.11-58.66.01-117.32.05-175.97a95.361,95.361,0,0,0-2.77-26.13,73.938,73.938,0,0,0-23.68-37.78,109.787,109.787,0,0,0-42.04-22.02q-77.985-23.4-155.95-46.84c-19.32-5.49-40.31-9.06-59.91-2.83-18.13,5.55-32.71,19.32-42.34,35.32-8.72,15.76-14.34,34.34-10.54,52.38,3.07,15.23,13.28,28.24,26.08,36.69,17.13,11.66,37.79,15.93,57.69,20.31a196.432,196.432,0,0,1,49.63,18.26c26.27,13.66,47.14,37.55,56.5,65.71,6.35,19.17,8.13,40.45,1.97,59.9-3.98,12.51-12.39,24.51-25.05,29.27-12.23,4.71-26.12,2.08-37.42-3.91q-118.035-64.455-236.07-128.9c-32.32-17.6-64.63-35.21-96.65-53.35-74.61-41.52-149.68-82.2-224.36-123.59-10.64-5.8-20.98-12.21-32.23-16.77-3.92-1.58-8.19-1.89-12.36-2.12a103.119,103.119,0,0,0-42.67,7.73c-14.19,5.86-27.45,14.82-36.68,27.23q-64.035,99.54-128.4,198.88a69.594,69.594,0,0,0-14.75,37.59c.16,13.34.05,26.69.09,40.04.09,13.86-4.79,28-14.53,38.02-9.05,9.51-22.1,14.75-35.15,15.04-49.63-.12-99.27-.35-148.91-.39-21.46-.25-43.37-2.09-63.44-10.22-12.88-5.02-24.19-13.09-36.02-20.08q-81.93-50.085-163.87-100.17c-7.64-4.55-12.75-12.6-14.56-21.21a49.023,49.023,0,0,1,10.97-42.01c5.97-6.79,14.8-11.21,23.93-10.97,83.33.07,166.65-.14,249.98-.07,25.37.2,50.87-9.17,69.39-26.65,15.73-14.57,26.33-34.29,30.71-55.22,3.64-15.6,3.05-32.35-2.98-47.29-6.23-15.81-19-28.45-34.09-35.98A115.159,115.159,0,0,0,592,265.28q-169.515-.09-339.04-.03a212.311,212.311,0,0,0-69.05,12.89M309.72,648.9c1.32,20.67,2.93,41.34,4.15,62.02.87,10.47,5.07,21.02,13.14,28.01,9.55,8.32,22.42,11.67,34.8,12.58,6.37.75,12.79.19,19.19.36,71.41-.11,142.83.23,214.23-.17,45.91.31,91.83.04,137.74.13,13.32-.14,26.67.4,39.98-.6,82.96-5.03,165.96-9.71,248.91-14.96M345.77,693.76m-37.51-52.93c.56,2.57,1.09,5.17,1.52,7.78M169.42,284.27a162.151,162.151,0,0,0-69.16,58.97C83.08,369.4,73.98,400.17,70.63,431.1c-2.73,26.83,4.21,54.18,17.96,77.24,16.59,28.01,42.83,49.98,72.98,62.14,40.91,16.68,81.74,33.6,122.68,50.21,9.98,3.41,19.86,9.66,23.79,19.92M179.87,279.45c-3.35,1.65-6.82,3.05-10.21,4.6m14.25-5.91a4.2,4.2,0,0,0-3.16,3.53M144.3,540.1C147.27,538.58,144.43,543.44,144.3,540.1ZM644.33,294.18c1.39-.37,1.92.14,1.6,1.52C644.52,296.07,643.99,295.56,644.33,294.18Zm3.94,3.9c1.37-.36,1.89.16,1.57,1.56C648.46,300,647.93,299.47,648.27,298.08ZM135.28,330.24c1.43-.52,1.86-.07,1.3,1.35C135.15,332.1,134.72,331.65,135.28,330.24ZM293.3,599.13C296.17,597.41,293.65,602.45,293.3,599.13Zm76.91,118.95C373.15,716.48,370.42,721.41,370.21,718.08Zm262.5-315.71M403.27,737.19ZM137.7,534.68m152.56,62.37C293.19,595.43,290.5,600.38,290.26,597.05Z" transform="translate(-69.544 -264.739)"   stroke-miterlimit="10"/></svg>