<svg id="Layer_1" data-name="Layer 1" xmlns="http://www.w3.org/2000/svg" viewBox="0 0 703.5 404.767">
<style>
                    path, polyline, polygon, line, circle {
                        stroke: #f97316 !important;
                        stroke-width: 3.5px !important;
                        fill: none !important;
                        stroke-linecap: round !important;
                        stroke-linejoin: round !important;
                        filter: drop-shadow(0px 0px 5px #f97316) !important;
                    }
                </style>


<title>motogp_americas_gp</title><polyline points="142.155 329.382 205.36 379.764 222.818 391.987 236.336 400.036 241.345 402.421 243.297 403.017 245.47 402.634 247.422 401.442 248.748 399.44 249.411 397.609 249.19 395.394 235.452 355.872 229.337 337.602 228.269 331.98 228.048 327.168 228.269 321.546 229.337 316.307 231.29 309.706 234.347 304.085 237.625 299.059 242.192 293.821 247.201 290.201 253.978 285.985 290.811 263.115 305.875 253.66 309.116 250.466 311.953 246.633 314.347 243.439 316.336 239.01 317.846 235.219 321.787 224.189 324.402 220.569 327.68 216.353 332.026 213.542 335.525 211.711 344.218 208.303 350.995 204.896 354.899 201.873 357.33 198.892 359.503 194.846 360.35 190.033 361.676 181.814 362.339 176.575 363.629 170.783 365.396 166.567 367.569 162.521 370.406 158.518 373.463 154.898 378.03 150.894 383.26 147.061 388.932 143.867 395.01 141.269 400.277 140.034 404.623 139.864 408.122 140.034 413.794 141.653 449.964 158.305 453.463 159.71 457.146 159.71 459.982 158.518 467.201 154.089 475.673 147.274 481.787 141.056 487.901 132.837 492.468 127.428 496.63 124.191 501.198 122.19 504.697 121.381 509.706 121.381 515.378 122.999 519.724 125.384 523.223 128.834 525.175 131.219 527.128 134.242 528.896 137.649 531.511 140.46 534.568 141.653 537.588 141.653 602.781 127.215 606.943 125.81 609.558 124.404 611.511 122.573 649.669 76.237 683.223 35.65 696.078 19.211 701.345 9.586 701.75 7.159 701.124 4.944 699.577 3.752 697.625 2.346 695.452 1.75 693.058 1.92 689.779 2.729 620.019 25.046 571.4 38.674 517.772 51.706 453.684 64.568 413.573 71.212 376.483 76.62 267.275 88.673 255.083 90.887 253.536 91.867 252.873 93.869 253.094 95.487 254.641 97.702 261.824 105.708 286.685 139.864 297.588 157.538 298.251 160.136 297.588 163.926 296.041 166.567 293.205 168.569 290.811 169.165 286.244 169.761 265.986 168.143 263.997 167.163 262.266 165.545 260.534 163.543 258.988 160.732 254.862 149.489 253.094 145.06 250.258 141.056 236.962 127.428 235.01 125.81 232.616 124.788 230.221 124.404 217.146 123.212 214.531 123.382 212.984 124.404 211.474 126.193 210.811 128.621 211.695 131.431 236.962 174.999 247.201 194.249 248.085 199.488 247.864 204.684 247.017 208.9 245.912 213.116 243.076 220.952 239.135 229.598 236.52 233.005 232.174 236.199 227.164 238.626 206.464 248.038 202.303 249.061 198.177 249.273 190.553 248.677 183.334 247.655 176.372 245.44 168.748 242.417 161.971 238.413 157.404 235.006 154.347 229.811 130.59 196.464 112.063 173.168 109.669 170.783 106.833 169.548 103.113 168.781 99.835 168.952 95.268 170.187 89.816 171.976 85.249 173.764 8.711 207.324 4.365 210.305 2.634 213.116 1.75 216.14 2.634 218.354 4.365 220.356 6.538 222.358 46.649 254.682 142.155 329.382"   stroke-linecap="round" stroke-linejoin="round" /></svg>