<svg id="Layer_1" data-name="Layer 1" xmlns="http://www.w3.org/2000/svg" viewBox="0 0 461.464 378.75">
<style>
                    path, polyline, polygon, line, circle {
                        stroke: #f97316 !important;
                        stroke-width: 3.5px !important;
                        fill: none !important;
                        stroke-linecap: round !important;
                        stroke-linejoin: round !important;
                        filter: drop-shadow(0px 0px 5px #f97316) !important;
                    }
                </style>


<title>motogp_malaysian_gp</title><polyline points="135.886 204.682 17.646 214.419 12.214 213.98 7.307 211.524 3.934 207.971 2.094 203.147 1.875 197.708 3.846 192.007 8.446 187.708 14.667 185.735 21.939 187.182 35.432 192.007 39.945 191.261 43.756 187.489 44.983 182.884 43.756 176.831 39.726 170.691 30.526 159.419 26.627 152.533 24.086 144.375 22.859 136.173 22.859 126.875 25.094 103.98 28.686 93.235 34.337 82.27 40.032 75.208 48.794 67.27 57.994 61.217 67.632 57.664 121.78 39.989 162.303 24.024 189.42 12.27 206.9 4.331 212.946 1.875 217.458 2.05 221.357 4.507 222.759 9.419 230.294 51.48 234.894 73.147 241.377 99.419 246.109 109.55 251.41 116.787 260.522 124.068 269.546 128.893 278.527 131.129 287.333 131.524 297.365 129.989 307.616 125.998 314.888 120.779 329.082 105.559 336.048 101.349 347 97.577 356.331 97.27 365.531 98.498 372.979 101.568 379.638 106.875 459.151 197.577 459.589 202.007 457.749 207.05 444.212 237.445 440.138 240.296 435.319 241.436 362.728 245.647 294.561 253.629 257.192 259.77 253.644 262.664 252.505 267.445 255.659 272.796 282.295 287.533 288.121 293.41 292.196 302.094 294.255 311.129 293.948 324.024 292.196 334.857 289.786 345.428 283.434 358.936 273.927 372.752 268.714 376.042 263.72 376.875 258.068 375.822 253.556 372.884 170.276 304.243 164.449 302.094 156.958 301.656 148.766 303.717 118.406 319.287 110.302 321.831 100.664 323.147 92.209 323.059 76.437 320.208 65.704 315.779 58.739 310.252 49.407 297.971 46.122 288.761 45.64 283.147 49.539 276.831 57.906 273.366 388.18 212.621 392.912 208.454 396.373 200.471 394.62 193.805 388.619 187.577 378.762 186.042 135.886 204.682"   stroke-linecap="round" stroke-linejoin="round" /></svg>