<svg id="Layer_1" data-name="Layer 1" xmlns="http://www.w3.org/2000/svg" viewBox="0 0 391.548 168.521">
<style>
                    path, polyline, polygon, line, circle {
                        stroke: #f97316 !important;
                        stroke-width: 3.5px !important;
                        fill: none !important;
                        stroke-linecap: round !important;
                        stroke-linejoin: round !important;
                        filter: drop-shadow(0px 0px 5px #f97316) !important;
                    }
                </style>


<title>motogp_portuguese_gp</title><polyline points="148.12 156.065 45.201 150.795 20.815 149.178 17.949 148.424 15.863 146.089 13.993 142.25 12.967 137.853 6.121 116.186 1.875 101.193 2.107 96.688 3.423 93.561 26.378 58.051 29.053 56.613 31.498 56.491 33.591 56.946 35.815 58.448 37.362 61.568 42.706 88.21 44.328 92.541 47.407 96.74 49.546 98.486 53.253 100.99 59.938 102.829 222.845 111.984 230.244 112.098 233.554 110.151 234.668 107.167 234.052 103.672 231.831 100.956 226.274 98.507 184.385 78.775 175.923 75.134 165.489 72.78 157.796 72.413 150.53 73.014 102.22 80.298 97.308 79.835 92.553 77.604 88.768 74.556 84.896 69.018 71.033 45.7 70.894 42.918 71.413 40.001 73.681 36.112 77.164 33.557 80.597 32.899 174.723 51.056 179.021 51.64 184.749 51.293 189.394 50.661 196.032 47.807 202.873 42.835 240.639 6.858 245.426 4.392 252.997 2.257 264.65 1.875 269.077 2.747 272.235 4.635 274.04 6.902 275.573 10.503 273.587 62.388 274.165 65.99 276.231 71.568 279.724 77.977 284.842 83.553 291.525 87.7 327.101 106.39 330.766 107.149 334.036 106.191 338.096 104.17 340.248 99.847 340.781 95.901 340.063 93.799 314.913 52.371 314.23 47.426 314.832 42.624 318.172 37.407 323.944 34.191 329.775 32.452 333.581 32.257 340.902 33.254 344.768 34.751 348.993 37.192 352.784 40.88 358.848 49.549 384.064 91.334 387.226 99.572 389.034 106.548 389.639 111.831 389.673 119.739 388.623 126.815 385.745 135.2 382.444 141.402 378.375 147.397 373.041 152.862 366.993 158.078 359.954 161.644 353.227 164.316 344.558 166.646 151.45 156.251 148.12 156.065"   stroke-linecap="round" stroke-linejoin="round" /></svg>