<svg id="Layer_1" data-name="Layer 1" xmlns="http://www.w3.org/2000/svg" viewBox="0 0 437.004 134.552">
<style>
                    path, polyline, polygon, line, circle {
                        stroke: #f97316 !important;
                        stroke-width: 3.5px !important;
                        fill: none !important;
                        stroke-linecap: round !important;
                        stroke-linejoin: round !important;
                        filter: drop-shadow(0px 0px 5px #f97316) !important;
                    }
                </style>


<title>motogp_catalan_gp</title><polyline points="291.066 131.301 216.616 130.557 175.042 130.399 132.404 129.867 87.214 129.66 71.908 129.511 68.065 128.822 65.087 127.911 63.243 126.677 60.956 123.844 59.41 120.928 58.673 118.513 58.522 115.83 58.678 106.066 58.311 103.236 56.737 98.717 54.76 95.506 50.935 91.53 47.702 89.934 21.189 79.441 18.158 77.565 15.404 75.394 11.823 72.422 9.093 69.208 7.185 66.11 5.292 62.629 3.464 58.578 2.4 54.211 1.875 48.485 2.145 45.2 2.677 42.003 3.214 39.084 6.679 30.089 10.222 24.539 14.757 19.313 18.438 16.422 22.874 13.067 27.931 10.109 33.679 7.598 43.376 4.526 51.567 2.664 58.418 1.875 64.262 1.956 138.803 2.645 141.96 3.507 145.363 5.31 149.907 9.778 151.575 13.367 152.43 16.583 152.599 20.782 151.93 26.059 150.753 29.903 146.984 35.966 143.473 39.47 137.263 43.668 133.315 45.787 128.439 47.481 123.11 48.236 114.523 48.846 61.061 47.932 58.044 48.854 55.75 50.205 53.406 52.491 52.228 54.775 51.422 56.987 51.26 59.769 51.904 62.709 52.741 64.813 55.253 67.539 56.704 68.61 96.099 95.215 102.42 98.371 109.452 101.058 117.434 103.19 124.045 104.109 156.112 104.601 160.532 104.062 163.338 103.27 166.739 100.333 168.969 96.372 169.876 91.821 169.714 82.69 170.434 77.225 171.461 73.817 173.137 70.04 174.419 67.723 190.74 44.947 209.076 19.216 212.822 15.755 217.175 13.075 220.794 11.438 224.446 10.125 229.46 9.875 232.974 9.894 238.78 10.997 243.484 12.746 375.959 93.024 380.821 95.706 384.441 96.44 387.287 96.122 390.114 94.755 392.561 92.094 394.069 89.263 394.778 86.082 395.202 81.829 394.374 75.883 393.287 72.561 391.366 68.223 389.401 64.693 387.059 61.364 383.766 58.184 377.997 54.501 373.697 52.19 366.193 49.888 359.564 47.11 355.906 44.622 352.24 39.55 350.986 35.956 350.595 30.989 351.268 26.396 353.074 22.695 355.465 19.133 358.83 16.406 360.469 15.209 365.945 13.271 370.533 13.003 375.126 14.167 415.381 27.955 419.407 29.28 423.607 31.497 426.674 33.974 430.085 37.955 432.879 42.222 434.514 46.704 435.129 50.816 434.994 60.006 434.789 70.299 434.303 79.393 434.45 84.979 434.188 104.32 433.892 109.118 432.964 112.621 431.549 116.143 429.517 119.546 426.322 123.292 423.05 126.305 417.728 129.645 412.449 131.835 402.421 132.677 291.066 131.301"   stroke-linecap="round" stroke-linejoin="round" /></svg>