<svg id="Layer_1" data-name="Layer 1" xmlns="http://www.w3.org/2000/svg" viewBox="0 0 436.523 323.19">
<style>
                    path, polyline, polygon, line, circle {
                        stroke: #f97316 !important;
                        stroke-width: 3.5px !important;
                        fill: none !important;
                        stroke-linecap: round !important;
                        stroke-linejoin: round !important;
                        filter: drop-shadow(0px 0px 5px #f97316) !important;
                    }
                </style>


<title>motogp_qatar_gp</title><polyline points="200.411 316.653 91.132 313.842 48.606 312.941 41.899 310.621 36.089 306.229 32.55 301.151 31.064 295.534 31.012 288.196 33.668 281.368 38.17 276.083 91.871 246.768 95.583 243.146 99.087 237.557 100.969 229.886 99.088 221.723 95.439 215.559 90.394 211.65 50.359 189.799 45.36 186.034 41.674 181.735 38.507 176.99 36.667 171.758 2.585 65.741 1.75 60.503 3.409 54.118 6.055 48.581 10.576 44.014 15.49 41.246 44.912 32.697 50.033 32.8 55.904 34.909 60.409 37.798 64.185 41.718 66.636 46.872 88.366 115.507 90.663 119.276 94.242 121.51 98.029 122.41 101.6 121.732 105.278 119.819 108.254 115.965 109.095 112.564 109.569 107.77 122.742 17.539 125.001 12.445 129.275 7.028 134.405 3.363 140.564 1.75 146.896 2.241 152.326 4.134 156.574 6.716 159.859 10.508 162.874 16.265 163.769 20.124 165.118 28.529 168.729 39.11 172.987 48.653 178.244 57.597 185.332 66.463 190.408 72.119 200.121 80.661 203.753 85.205 205.919 90.626 206.482 95.432 205.892 101.101 191.871 148.603 191.906 153.495 192.761 157.723 195.926 161.721 199.524 164.673 205.943 167.414 214.496 166.326 226.847 163.118 242.907 156.444 257.255 148.069 269.149 137.996 279.22 126.865 287.491 115.083 294.051 100.776 323.234 34.567 327.748 29.563 334.694 24.792 341.503 21.984 350.697 20.992 385.906 22.127 391.213 23.634 395.414 26.071 399.435 29.268 403.297 35.516 426.451 78.889 427.516 83.279 427.016 88.568 425.812 93.645 422.207 99.333 366.286 162.485 363.336 167.571 361.901 173.496 362.342 179.489 364.33 184.689 432.294 290.677 434.599 297.358 434.773 303.51 432.045 310.689 428.609 315.336 423.743 318.996 416.579 321.44 200.411 316.653"   stroke-linecap="round" stroke-linejoin="round" /></svg>