<svg id="svg2" xmlns="http://www.w3.org/2000/svg" xmlns:xlink="http://www.w3.org/1999/xlink" viewBox="0 0 1293.679 787.359">
<style>
                    path, polyline, polygon, line, circle {
                        stroke: #f97316 !important;
                        stroke-width: 3.5px !important;
                        fill: none !important;
                        stroke-linecap: round !important;
                        stroke-linejoin: round !important;
                        filter: drop-shadow(0px 0px 5px #f97316) !important;
                    }
                </style>


<defs><filter id="filter5277" x="-69.417" y="-53.167" width="1.073" height="1.333" name="filter5277"><feGaussianBlur result="feGaussianBlur5279" stdDeviation="4.59"/></filter></defs><title>motogp_brazilian_gp</title><g id="layer2"><g filter="url(#filter5277)"><path id="path3764" d="M258.783,820.692c-73.551,40.681-140.772,5.62-162.525-49.489l-16.872-42.74c-15.742-39.881-7.1-91.38,15.747-127.659l163.65-259.816c10.209-16.207,26.413-29.226,43.866-37.117l187.833-84.918c37-16.73,91.914,6.823,103.359,57.4,9.714,42.927-17.518,88.918-66.243,95.563L403.876,388.79c-26.8,3.654-55.079,19.1-69.172,42.178L224.479,611.489c-14.115,23.118,8.543,53.793,28.681,60.737l16.309,5.623c29.064,10.023,67.288-10.805,84.918-35.991l15.746-22.495c16.931-24.187,40.576-45.217,67.485-57.362L691.811,447.276c19.453-8.779,38.213-22.17,50.051-39.928l43.865-65.8c10.564-15.845-3.776-45.72-20.245-55.283l-17.434-10.123c-17.709-10.282-23.981-41.447-12.372-58.316l35.992-52.3c17.68-25.693,56.274-44.648,87.167-48.927l442.588-61.3c26.307-3.643,60.688,26.327,59.612,52.863l-1.687,41.616c-1.555,38.343-28.844,78.156-62.424,96.728Z" transform="translate(-69.381 -53)"   /></g><g id="use3994"><path id="path3764-2" data-name="path3764" d="M258.783,820.692c-73.551,40.681-140.772,5.62-162.525-49.489l-16.872-42.74c-15.742-39.881-7.1-91.38,15.747-127.659l163.65-259.816c10.209-16.207,26.413-29.226,43.866-37.117l187.833-84.918c37-16.73,91.914,6.823,103.359,57.4,9.714,42.927-17.518,88.918-66.243,95.563L403.876,388.79c-26.8,3.654-55.079,19.1-69.172,42.178L224.479,611.489c-14.115,23.118,8.543,53.793,28.681,60.737l16.309,5.623c29.064,10.023,67.288-10.805,84.918-35.991l15.746-22.495c16.931-24.187,40.576-45.217,67.485-57.362L691.811,447.276c19.453-8.779,38.213-22.17,50.051-39.928l43.865-65.8c10.564-15.845-3.776-45.72-20.245-55.283l-17.434-10.123c-17.709-10.282-23.981-41.447-12.372-58.316l35.992-52.3c17.68-25.693,56.274-44.648,87.167-48.927l442.588-61.3c26.307-3.643,60.688,26.327,59.612,52.863l-1.687,41.616c-1.555,38.343-28.844,78.156-62.424,96.728Z" transform="translate(-69.381 -53)"   /></g></g></svg>