<?xml version="1.0" encoding="utf-8"?>
<!-- Generator: Adobe Illustrator 22.0.1, SVG Export Plug-In . SVG Version: 6.00 Build 0)  -->
<svg version="1.1" id="svg2383" xmlns="http://www.w3.org/2000/svg" xmlns:xlink="http://www.w3.org/1999/xlink" x="0px" y="0px"
	 viewBox="0 0 1366.5 825.7" style="enable-background:new 0 0 1366.5 825.7;" xml:space="preserve">
<style>
                    path, polyline, polygon, line, circle {
                        stroke: #f97316 !important;
                        stroke-width: 3.5px !important;
                        fill: none !important;
                        stroke-linecap: round !important;
                        stroke-linejoin: round !important;
                        filter: drop-shadow(0px 0px 5px #f97316) !important;
                    }
                </style>
<style type="text/css">
	.st0{fill:none;stroke:#F97316;stroke-width:3.5;stroke-linecap:round;stroke-linejoin:round;}
</style>
<title>motogp_dutch_tt</title>
<path id="path3194" class="st0" d="M321.6,386.2C224.1,325.7,128.7,267.2,32,205.4c-5.1-3.3-8.3-15.7-6.4-21.3
	c12.3-36.5,21.8-61.9,34.6-96.9c3.6-9.9,14-16.3,20.5-19.3c36.5-16.9,71.9-31.4,106.3-47.1c6.7-3,19-1.9,25.8,0.6
	c7.7,2.8,16.6,9.1,21.1,15.5c5.2,7.4,7.8,18,8.2,27.3c0.3,10.6-1.7,21.2-5.9,31c-3.4,8.5-8.7,18.8-16.4,23
	c-9.9,5.4-24.3,6.4-36.3,5.7c-16.1-0.9-32.5-8.6-47.7-8c-7,0.2-14.3,5-19,10.3c-3.4,3.8-4.8,10.4-3.8,14.9c1.3,5.8,10,13,16.4,14.7
	c24.1,6.1,46.6,11.2,72.9,12.9c24.1,1.6,49.1-5.3,72.6,0c71.6,16.1,142.9,31.2,213.2,50.6c46.4,12.8,90.8,29.9,136.7,44.3
	c33.7,10.5,64.9,19.4,98.4,29.9c13,4.1,19.5,16.1,23.7,25.9c4.5,10.4,8.5,23.6,16.4,32.5c10.1,11.4,23.8,20.6,38.4,24.7
	c16.7,4.7,36.4,4.2,54.2,0.3c43.1-9.5,82.1-24.5,125.3-36.2c14.8-4,27.5-2.6,37.5,1.7c8.7,3.8,19.3,11.5,22,20.1
	c14.8,48.6,34.3,89.7,51.8,135.1c20.6,53.4,40.2,105.4,56.8,158.4c3.4,10.8,22.9,21.6,30.5,21c45.7-4,81-14.8,129.1-17.8
	c6.6-0.4,18.1,0.6,23.1,4.6c7.9,6.3,16.4,15.3,18.2,24.7c2.9,15.1,0.1,34.4-5.9,49.4c-6.2,15.7-18.1,30.9-30.5,42.5
	c-8.3,7.9-20.4,13-31.6,16.1c-12.2,3.4-26,5.7-38.6,3.4c-58.8-10.7-119.2-24.3-175.7-42.5c-12.2-4-21.3-15-30.5-24.1
	c-49.4-49.1-100-98.3-145.2-150.6c-9.8-11.3-13.2-26.9-19.9-40.2c-5.4-10.8-9.4-22.6-16.4-32.2c-7.8-10.7-17.9-20.1-28.1-28.7
	c-24.1-20.5-47.8-43.9-75-58.6c-13.8-7.5-32.4-11.4-48-8c-69.5,14.7-139.4,48.5-207.3,62.1c-9,1.8-16.9-9.5-23.4-16.1
	c-5.2-5.3-3.6-13.3-9.7-16.4c-8.4-4.2-20.6-1.6-31-3.2c-10.7-1.5-24.7-6.6-34.3-11.2C372.1,417.2,347,402,321.6,386.2z"/>
<path id="path2406" class="st0" d="M321.6,386.2C224.1,325.7,128.7,267.2,32,205.4c-5.1-3.3-8.3-15.7-6.4-21.3
	c12.3-36.5,21.8-61.9,34.6-96.9c3.6-9.9,14-16.3,20.5-19.3c36.5-16.9,71.9-31.4,106.3-47.1c6.7-3,19-1.9,25.8,0.6
	c7.7,2.8,16.6,9.1,21.1,15.5c5.2,7.4,7.8,18,8.2,27.3c0.3,10.6-1.7,21.2-5.9,31c-3.4,8.5-8.7,18.8-16.4,23
	c-9.9,5.4-24.3,6.4-36.3,5.7c-16.1-0.9-32.5-8.6-47.7-8c-7,0.2-14.3,5-19,10.3c-3.4,3.8-4.8,10.4-3.8,14.9c1.3,5.8,10,13,16.4,14.7
	c24.1,6.1,46.6,11.2,72.9,12.9c24.1,1.6,49.1-5.3,72.6,0c71.6,16.1,142.9,31.2,213.2,50.6c46.4,12.8,90.8,29.9,136.7,44.3
	c33.7,10.5,64.9,19.4,98.4,29.9c13,4.1,19.5,16.1,23.7,25.9c4.5,10.4,8.5,23.6,16.4,32.5c10.1,11.4,23.8,20.6,38.4,24.7
	c16.7,4.7,36.4,4.2,54.2,0.3c43.1-9.5,82.1-24.5,125.3-36.2c14.8-4,27.5-2.6,37.5,1.7c8.7,3.8,19.3,11.5,22,20.1
	c14.8,48.6,34.3,89.7,51.8,135.1c20.6,53.4,40.2,105.4,56.8,158.4c3.4,10.8,22.9,21.6,30.5,21c45.7-4,81-14.8,129.1-17.8
	c6.6-0.4,18.1,0.6,23.1,4.6c7.9,6.3,16.4,15.3,18.2,24.7c2.9,15.1,0.1,34.4-5.9,49.4c-6.2,15.7-18.1,30.9-30.5,42.5
	c-8.3,7.9-20.4,13-31.6,16.1c-12.2,3.4-26,5.7-38.6,3.4c-58.8-10.7-119.2-24.3-175.7-42.5c-12.2-4-21.3-15-30.5-24.1
	c-49.4-49.1-100-98.3-145.2-150.6c-9.8-11.3-13.2-26.9-19.9-40.2c-5.4-10.8-9.4-22.6-16.4-32.2c-7.8-10.7-17.9-20.1-28.1-28.7
	c-24.1-20.5-47.8-43.9-75-58.6c-13.8-7.5-32.4-11.4-48-8c-69.5,14.7-139.4,48.5-207.3,62.1c-9,1.8-16.9-9.5-23.4-16.1
	c-5.2-5.3-3.6-13.3-9.7-16.4c-8.4-4.2-20.6-1.6-31-3.2c-10.7-1.5-24.7-6.6-34.3-11.2C372.1,417.2,347,402,321.6,386.2z"/>
</svg>
