<svg id="Layer_1" data-name="Layer 1" xmlns="http://www.w3.org/2000/svg" viewBox="0 0 1940 763.15">
<style>
                    path, polyline, polygon, line, circle {
                        stroke: #f97316 !important;
                        stroke-width: 3.5px !important;
                        fill: none !important;
                        stroke-linecap: round !important;
                        stroke-linejoin: round !important;
                        filter: drop-shadow(0px 0px 5px #f97316) !important;
                    }
                </style>
<title>motogp_valencian_gp</title><path d="M1057.95,464.749c-73.418,30.71-151.321,74.471-225.089,110.115-23.548,11.378-42.8,5.957-56.773-5.824-34.613-29.183-67.943-59.059-107.416-82.639-35.01-20.914-59.139-30.054-91.173-40.429-15.731-5.094-43.151-10.875-59.587-12.877-43.516-5.3-81.735-4.351-125.391.909-31.8,3.832-69.407,13.474-98.631,27.052-40.114,18.637-67.336,32.963-97.578,57.135-27.084,21.648-54.357,49.107-73.714,73.572-33.361,42.166-56.331,78.832-80.81,127.3C35,732.5,27.4,748.027,28.038,762.588c.549,12.519,5.286,28.221,13.683,36.738,9.2,9.335,25.015,16.775,39.12,16.818,228.682.7,463.368-.48,695.052-.4,303.6.1,606.953-2.631,910.119-2.379,23.3.019,54.323-4.474,76.993-19.794s36.988-41.466,42.123-63.874c41.432-180.829,87.658-393.785,131.521-563.612,4.661-18.046-2.714-43.927-22.508-57.13s-52.005-13.728-73.556,8.468c-41.509,42.752-92.6,105.089-139.185,148.323-24.065,22.331-35.908,43.9-31.812,82.748,8.273,78.46,16.6,145.034,19.574,221.717.514,13.239.4,33.926-7.2,48.247s-22.691,22.277-34.831,23.094c-77.65,5.222-143.647.994-218.7,1-20.273,0-37.529-15.113-49.717-31.74-10.329-14.091-16.418-40.5-16.963-57.819-.454-14.438,5.192-36.511,18.674-56.371,73.694-108.555,131.136-193.533,206.3-303.434,26.6-38.89-10.41-104.1-53.87-105.792-181.371-7.046-362.412-2.87-546.289-3.668-18.336-.08-40.613,5.852-57.239,13.728-77.666,36.8-158.2,74.505-236.5,110.345-18.28,8.368-35.8,23.579-43.86,41.632-7,15.676-9.818,39.865-6.98,56.916,3.2,19.2,9.7,37.252,24.735,53.878,13.632,15.072,32.282,22.514,51.25,24.35,72.508,7.023,148.946,5.909,221.942,1.445,14.433-.883,29.223-8.139,40.344-17.485,38.073-32,69.492-73.6,107.237-106.541,16.025-13.988,34.006-29.8,54.073-34.258,34.414-7.649,42.7-6.248,102.441-3.823,43.484,1.764,45.559,2.141,64.237,8.508,0,0,18.5,7.143,31,24.078,14.694,19.907,12.712,36,10.239,51.769-3.3,21.022-20.965,34.67-33.621,40.33-93.206,41.684-161.3,75.733-257.917,116.148Z" transform="translate(-13 -68.216)"   stroke-linecap="round" stroke-linejoin="round" /></svg>