<svg id="Layer_1" data-name="Layer 1" xmlns="http://www.w3.org/2000/svg" viewBox="0 0 504.414 301.786">
<style>
                    path, polyline, polygon, line, circle {
                        stroke: #f97316 !important;
                        stroke-width: 3.5px !important;
                        fill: none !important;
                        stroke-linecap: round !important;
                        stroke-linejoin: round !important;
                        filter: drop-shadow(0px 0px 5px #f97316) !important;
                    }
                </style>


<title>motogp_british_gp</title><polyline points="6.999 125.433 1.75 71.098 2.242 61.428 4.635 53.972 7.799 49.1 14.454 43.258 22.07 39.539 31.67 36.498 47.97 32.198 63.976 27.802 81.685 25.163 92.827 24.001 119.85 22.33 142.925 21.513 151.928 20.491 160.325 16.984 172.031 10.396 178.715 7.603 183.774 7.674 189.717 8.814 214.118 17.769 223.914 18.274 230.902 16.793 236.836 13.429 249.425 4.222 255.24 2.054 262.11 1.75 268.382 3.225 275.307 8.699 280.431 15.725 286.163 25.356 290.676 32.846 295.913 38.118 306.215 44.138 328.925 55.959 451.345 120.98 485.33 142.36 493.655 148.419 498.111 153.319 501.083 159.07 502.664 165.073 502.262 170.617 500.927 176.768 498.706 181.97 495.087 186.608 489.289 190.569 487.031 191.766 474.249 197.786 462.836 204.491 453.437 211.654 447.68 216.551 441.767 222.028 432.067 231.686 406.757 253.269 405.416 255.414 405.119 258.366 406.541 261.282 414.731 270.172 415.829 273.231 415.534 276.302 414.489 278.903 411.023 282.603 407.072 286.526 400.7 291.429 393.86 295.021 386.849 297.579 378.927 299.766 375.72 300.036 372.505 299.469 369.441 297.744 362.658 293.564 277.106 229.249 258.165 214.801 254.603 211.786 251.051 206.499 249.467 200.157 249.256 194.957 249.804 187.758 252.661 167.683 253.376 161.06 253.603 154.223 252.459 146.441 250.577 139.385 246.983 133.062 213.588 91.848 211.747 89.155 210.03 85.863 209.674 82.459 210.589 79.859 212.706 77.468 215.124 76.03 239.824 68.721 243.305 66.556 245.417 63.606 245.546 60.178 243.825 56.407 240.755 54.085 237.531 52.581 229.399 49.709 222.504 47.423 215.744 45.713 209.187 44.839 202.277 44.306 195.117 44.853 191.921 46.298 187.838 49.983 66.252 185.732 63.985 189.401 61.439 194.506 60.591 200.752 61.398 207.241 64.67 213.806 67.61 216.15 71.905 217.763 94.234 220.262 98.819 221.753 102.546 225.006 105.024 229.944 105.854 235.357 104.355 241.389 101.51 245.661 98.163 248.284 94.227 250.334 89.951 250.733 85.34 249.94 77.821 246.723 43.293 229.713 36.66 224.215 31.098 218.848 24.313 211.12 19.812 204.806 16.364 196.807 14.029 189.874 12.041 175.146 6.999 125.433"   stroke-linecap="round" stroke-linejoin="round" /></svg>