<svg id="Layer_1" data-name="Layer 1" xmlns="http://www.w3.org/2000/svg" viewBox="0 0 1299 881">
<style>
                    path, polyline, polygon, line, circle {
                        stroke: #f97316 !important;
                        stroke-width: 3.5px !important;
                        fill: none !important;
                        stroke-linecap: round !important;
                        stroke-linejoin: round !important;
                        filter: drop-shadow(0px 0px 5px #f97316) !important;
                    }
                </style>
<title>motogp_australian_gp</title><path d="M536.209,560.061c140.356,2.086,281.878,3.327,422.186,5.317,110.154,1.563,152.023,77.126,172.08,177.486,5.373,26.815,4.241,56.408,14.963,80.772,13.577,30.853,39.718,55.664,73.481,61.372,37.954,6.416,70.092-19.293,82.287-48.093,12.858-30.365,15.645-61.775.546-89-47.282-85.262-92.892-162.2-144.556-243.9-7.478-11.826-21.18-27.095-32.333-35.614a231.917,231.917,0,0,0-45.7-26.834c-19.512-8.514-38.11-17.866-59.315-21.26-62.358-9.981-121.561-17.354-180.627-24.98-12.177-1.572-20.38-6-22.452-15.675-4.334-20.245-.848-28.929,18.711-35.6a408.947,408.947,0,0,1,88.709-19.927c31.52-3.4,53.028-1.225,85.76-3.19,11.447-.687,26.254-14.4,32.872-22.586,5.76-7.126,8.318-20.632,6.952-30.29-1.84-13.015-5.914-23.533-14.164-33.2-8.532-10-21.777-17.025-32.87-20.993-47.336-16.933-90.014-39.23-139.473-43.841-53.148-4.954-110.313,11.645-164.066,11.155-23.915-.219-50.8-3.785-70.542-16.739-51.515-33.808-91.08-83.327-141.617-119.825-17.155-12.39-39.236-20.478-59.854-23.381-19.64-2.766-42.757-.956-60.922,6.376C348.449,34.8,330.311,48.988,319.24,64.8c-14.225,20.32-22.814,46.618-28.859,71.207-5.712,23.237-3.678,48.253-6.413,72.27-1.541,13.535-1.4,30.01-8.286,38.523-4.866,6.012-19.967,7.186-27.52,2.391-22.018-13.981-36.2-43.233-59.319-56.856-15.358-9.05-37.367-8.305-55.043-6.108-13.676,1.7-30.991,10.243-40.083,20.725-15.491,17.859-24.939,39.233-34.2,61.9-13.895,34.011-21.58,62.884-28.851,98.565-3.774,18.521-3.49,45.638.534,64.042a155.522,155.522,0,0,0,26.454,59.509C68.772,506.421,82.858,520.03,100.4,528.44c22.361,10.721,52.107,23.837,77.229,24.449,118.861,2.895,236.718,5.361,358.58,7.172Z" transform="translate(-20.5 -12.5)"   stroke-linecap="round" stroke-linejoin="round" /></svg>