<svg id="Layer_1" data-name="Layer 1" xmlns="http://www.w3.org/2000/svg" viewBox="0 0 1364 833.834">
<style>
                    path, polyline, polygon, line, circle {
                        stroke: #f97316 !important;
                        stroke-width: 3.5px !important;
                        fill: none !important;
                        stroke-linecap: round !important;
                        stroke-linejoin: round !important;
                        filter: drop-shadow(0px 0px 5px #f97316) !important;
                    }
                </style>
<title>motogp_italian_gp</title><path d="M686.73,456.744c-32.643-10.28-65.368-20.391-97.589-31.915-49.3-17.632-97.285-38.8-145.795-58.509-45.551-18.509-90.763-37.9-136.388-56.146a719.21,719.21,0,0,0-77.6-26c-56.009-15.283-113.114-26.887-167.546-44.916-13.37-4.429-30.9-12.849-35.861-25.414-5.267-13.327-13.563-30.476-8.23-44.325,5.176-13.445,16.411-28.236,29.394-33.688,17.979-7.55,38.883-7.7,59.964-6.5,34.18,1.95,66.394,14.958,98.764,12.411,12.7-1,25.558-13.807,32.333-24.822,11.645-18.93,16.728-43.907,28.219-63.238,7.714-12.977,20.037-23.8,33.509-28.959,11.219-4.3,34.251-.23,51.734,8.865C451.235,85.4,525.775,127.4,638.523,183.7c65.8,32.853,97.847-78.831,164.019-32.5,77.811,54.473,158.449,107.768,242.8,164.891,17.618,11.931,19.319,39.109,20.576,60.283,4.34,73.706,7.907,119.1,68.194,132.386,30.634,6.749,104.385,23.638,164.019,38.415,21.3,5.279,40,20.465,52.322,37.234,13.155,17.9,20.733,45.621,19.4,68.556-2.194,37.742-15.276,76.185-27.043,113.474-6.261,19.842-14.167,40.941-27.042,55.555-11.424,12.966-41.3,25.487-59.376,24.822-95.581-3.519-185.313-7.59-278.069-11.82-10.95-.5-23.634-8.619-31.745-15.957-7.566-6.846-11.821-16.575-13.522-26.6-4.5-26.524-5.57-59.226-15.872-83.923-4.983-11.945-18.567-23.242-31.746-26-107.141-22.454-221.322-28.233-329.214-49.645-13.212-2.622-26.181-12.148-34.1-22.458-9.329-12.149-14.11-29.439-14.11-44.326,0-13.875,9.853-32.716,19.988-41.961a61.794,61.794,0,0,1,39.976-16.549c20.008-.884,40.286,5.123,58.789,13.594,25.392,11.624,48.4,32.391,72.9,46.689,11.955,6.979,25.27,14.574,38.8,15.366,26.837,1.572,55.8-11.435,82.3-8.274,19.74,2.355,38.6,14.628,56.437,24.823,102.1,58.362,200.032,127.724,303.347,180.848,16.221,8.341,38.735,8.55,55.261,3.546,16-4.846,29.765-20.812,38.8-34.869,7.426-11.554,10.215-29.266,9.994-43.735-.17-11.141-5.4-23.162-11.17-32.5-8.34-13.509-17-25.658-30.57-34.279-20.532-13.049-44.671-21.851-68.194-29.55C1012.816,556.246,849.264,507.929,686.73,456.744Z" transform="translate(-11 -18)"   stroke-linecap="round" stroke-linejoin="round" /></svg>