<svg id="Layer_1" data-name="Layer 1" xmlns="http://www.w3.org/2000/svg" viewBox="0 0 572.445 730.17">
<style>
                    path, polyline, polygon, line, circle {
                        stroke: #f97316 !important;
                        stroke-width: 3.5px !important;
                        fill: none !important;
                        stroke-linecap: round !important;
                        stroke-linejoin: round !important;
                        filter: drop-shadow(0px 0px 5px #f97316) !important;
                    }
                </style>
<title>motogp_indonesian_gp</title><path d="M605.7,394.97c.08-16.72.17-33.82-4.97-49.91-1.94-5.73-4.41-11.6-8.95-15.78-22.87-20.12-45.82-40.16-68.01-61.03-6.21-6.07-12.81-12.54-15.19-21.17-.62.2-1.23.4-1.85.58,2.78-.81,1.34-3.82,1.85-5.79.53-5.68,3.12-10.9,5.22-16.13,1.9-4.27,3.47-8.86,6.64-12.39,1.85-2.08,4.88-1.94,7.41-1.6,9.07,1.35,17.94,4.18,27.15,4.58,6.58.26,13.7-2.39,17.13-8.29,3.83-5.99,2.83-13.34,3.06-20.08.4-38.98,1-77.98-.54-116.95-.16-8.53-1.36-17.75-7.39-24.29C559.53,37.98,547.2,35.39,536,35.46a67.421,67.421,0,0,1-11.453-.691,4.457,4.457,0,0,1-3.269,1.864,4.869,4.869,0,0,1-2.611.7,5.4,5.4,0,0,1-1.227-.143,4.369,4.369,0,0,1-1.048.53c.62.119,1.239.26,1.858.44q-99.3,27.75-198.67,55.29c-19.18,5.24-38.27,10.79-57.5,15.87-.054-.221-.114-.441-.173-.662a4.883,4.883,0,0,1-2.574.675,5.871,5.871,0,0,1-.587-.029,7.062,7.062,0,0,1-4.079,2.029,5.58,5.58,0,0,1-.645-.041c-.224.105-.45.206-.674.311-.024.011-.046.023-.07.033-.236.111-.475.214-.71.328.014.058.029.117.042.176-43.25,11.79-86.35,24.12-129.62,35.86-6.2,1.47-12.57,3.68-19.01,2.62-5.56-1.3-6.56-7.93-7.2-12.68-1.283-14.6.605-29.242,2.324-43.746a84.47,84.47,0,0,1,2.171-12.586q-.843-5.352-1.655-10.708c-1.06-10.28-2.02-21.43-8.66-29.85-4.47-5.83-12.71-7.11-19.5-5.49-8.34,2.09-14.91,8.35-19.59,15.32C44.78,61.49,40.8,73.82,37.78,86.12c-3.98,16.6-5.6,33.97-2.97,50.92,1.83,11.32,5.47,22.59,12.19,31.99,23.9,36.46,48.28,72.65,74.31,107.64,18.16,24.4,44.73,43.01,74.7,49.31,7.54,1.77,15.36,1.34,22.94,2.85,10.76,1.89,21.57,5.99,29.36,13.91a37.248,37.248,0,0,1,10.64,25.27c3.32,37.7,7.46,75.33,11.67,112.94,1.48,15.64,1.5,32.73-7.16,46.48-8.36,13.05-23.24,19.54-37.16,24.92-18.51,7.38-38.58,12.02-54.74,24.23-12.63,9.31-22.86,23.31-24.07,39.33-1.38,33.36-3.23,66.69-5.06,100.02-.55,11.12-.6,22.68,3.47,33.23,2.48,6.47,7.39,12.38,14.17,14.54,8.72,2.88,18.15.33,26.2-3.43q59.325-32.22,118.7-64.37c13.1-7.23,26.44-14.03,39.37-21.57,12.79-7.43,23.36-17.96,33.27-28.8,14.38-15.54,27.48-32.47,44.12-45.75,10.21-8.3,22.23-14.71,35.3-16.92,13.8-2.76,28.04-.52,41.82-3.37,8.42-1.67,16.76-4.74,23.55-10.11,3.21-2.5,5.61-5.82,8.22-8.89,16.33-19.23,32.86-38.32,50.12-56.72,9.08-9.64,17.46-20.31,22.34-32.73a37.891,37.891,0,0,0,2.89-14.07Q605.73,425.965,605.7,394.97Zm-8.19,69.27c-4.05,13.67-13.3,24.98-22.89,35.2-15.04,16.06-29.53,32.62-43.8,49.36-6.22,6.92-11.35,15.2-20.02,19.38,1.31.03,2.62.09,3.94.21-2.31.11-4.26,1.13-4.69,3.57.1-1.32.22-2.64.36-3.95-10.06,4.8-21.4,5.79-32.39,5.74-13.99,0-28.26,1.7-41.08,7.64.19.31.56.94.75,1.26-4.09-.92-7.33,2.5-10.73,4.24-28.33,18.26-46.3,47.76-71.13,69.92-11.63,10.45-25.99,16.97-39.53,24.49q-62.955,34.14-125.93,68.27c-7.61,4.51-16.21,8.86-25.33,7.72-5.67-.64-10-5.19-11.99-10.29-3.82-9.47-3.67-19.93-3.23-29.96,1.81-33.34,3.7-66.68,5.05-100.04.84-13.74,9.65-25.7,20.3-33.83,14.98-11.63,33.77-16.07,51.12-22.87,15.56-5.84,32.03-12.8,42.02-26.79,10.61-14.84,11.46-34.08,9.86-51.62-4.36-39.6-8.78-79.21-12.21-118.9-1.54-13.41-9.81-25.61-21.28-32.58-12.08-7.59-26.55-9.89-40.57-10.64-24.96-3.36-48.03-16.4-65.51-34.3-7.9-7.95-14.28-17.21-20.89-26.21-22.37-30.88-43.68-62.51-64.56-94.4-6.64-9.28-9.91-20.54-11.39-31.73-2.22-17.82.35-35.93,5.32-53.09C49.95,70.4,53.6,60.78,59.72,52.7c3.78-4.93,8.94-9.4,15.31-10.25,3.88-.44,8.47.38,10.68,3.96,4.69,6.87,5.6,15.48,6.25,23.55,1.76,23.47-5.17,46.74-2.39,70.19.5,5.29,2.79,10.12,5.6,14.56a15.576,15.576,0,0,0,1.21-3.58c0,2.49,2.08,3.42,4.31,3.35-1.03.47-3.03,0-3.43,1.24,5.46,3.65,12.5,2.83,18.61,1.64,10.46-2.32,20.73-5.37,31.06-8.2Q333.2,97.455,519.41,45.58c11.05-3.74,23.55-3.86,34.44.48a20.749,20.749,0,0,1,12.86,17.87c1.53,20.64,1.31,41.36,1.48,62.05,0,24.03-.15,48.06-.61,72.08.03,5.3-3.98,10.36-9.44,10.67-10.91.71-21.3-3.88-32.1-4.58a19.269,19.269,0,0,0-7.21,1.15c.22.33.65,1.01.86,1.35-3.22-1.09-5.17,2.11-6.83,4.31-3.83,5.91-6.15,12.64-8.84,19.11-3.04,7.51-4.47,16.26-.89,23.84,5.04,10.95,14.63,18.73,23.16,26.87,19.78,18.23,39.97,36.01,60.2,53.73,3.46,3.12,5.29,7.56,6.85,11.86,3.83,11.46,4.73,23.65,4.9,35.66.06,24.66.06,49.33.31,73.99a41.346,41.346,0,0,1-.7,7.27C599.46,464.27,600.64,465.33,597.51,464.24Z" transform="translate(-33.527 -34.769)" /></svg>