<svg id="svg2" xmlns="http://www.w3.org/2000/svg" viewBox="0 0 1012.412 1026.777">
<style>
                    path, polyline, polygon, line, circle {
                        stroke: #ec4899 !important;
                        stroke-width: 3.5px !important;
                        fill: none !important;
                        stroke-linecap: round !important;
                        stroke-linejoin: round !important;
                        filter: drop-shadow(0px 0px 5px #ec4899) !important;
                    }
                </style>
<title>worldsbk_jerez</title><path id="path41966" d="M299.481,434.855a30.316,30.316,0,0,1,9.66-5.718c5.3-1.724,14.1.789,14.1.789" transform="translate(-67.377 -11.465)"   /><path id="path3164" d="M695.41,662.727C677.865,604.547,649.369,550.1,627.1,493.536,568.658,354.208,508.124,215.6,450.994,75.82,439.73,37.4,481.025,18.466,512.765,24.628c54.625.283,109.543-2.062,163.984-.129,14.183,2.531,20.958,11.744,22.1,23.051,1.279,12.626-3.41,19.3-13.069,27.41-16.069,13.488-32.6,24.659-40.77,32-18.2,14.1-29.353,26.144-29.751,87.008,3.216,52.766-3.168,109.254,22.26,157.849,23.318,49.341,80.034,59.613,128.935,64.536,83.879,11.414,164.733,21.9,246.16,36.112,72.728,24.829,78.717,138.148,16.285,177.64l-482.34,392.036c-14.345,8.928-26.646,9.816-35.888,5.872s-16.062-13.351-17.133-23.909c-1.506-14.837,7.923-32.063,15.929-48.587,20.292-42.053,45.259-90.1,71.472-141.968,6.422-15.207,11.069-29.546,8.036-53.2-3.8-29.613-21.687-54.622-27.17-60.5-37.253-49.751-76.947-97.723-116.594-146.128-43.8-36.3-109.213-19.893-140.955,24-27.913,37.206-35.139,84.933-52.614,127.384-14.01,32.449-17.847,71.17-42.855,97.3-27.982,20.071-58.072-.363-79.681-19.143-19.618-18.877-57.017-29.219-53.5-62,10.78-40.991,35.847-76.9,52.991-115.62,24.316-46.431,45.057-94.955,71.794-139.968,3.17-6.111,15.32-23.577,33.069-31.5,19.941-8.906,36.638-9.192,46.383-9.118,17.785.86,104.7,12.719,139.007,19.339,4.768.92,8,1.57,11.989,3.512a46.109,46.109,0,0,1,11.19,7.783c20.1,19.61,35.489,44.514,54.5,65.356,48.846,58.98,96.176,119.3,146,177.417,24.828,17.724,61.577-4.6,52.882-35.729Z" transform="translate(-67.377 -11.465)"   /><g id="g4094"><g id="g4078"><rect id="rect3974-0" x="579.474" y="390.97" width="7.884" height="7.884" transform="translate(-170.78 226.57) rotate(-21.228)"   stroke-miterlimit="10"/><rect id="rect3974-6-1" x="583.968" y="380.766" width="7.884" height="7.884" transform="translate(-166.78 227.505) rotate(-21.228)"   stroke-miterlimit="10"/></g></g><g id="text4353" style="isolation:isolate"><text x="-67.377" y="-11.465" style="isolation:isolate"></text></g><line x1="518.286" y1="378.345" x2="515.431" y2="383.447"  stroke-miterlimit="10"/></svg>