<?xml version="1.0" encoding="utf-8"?>
<!-- Generator: Adobe Illustrator 22.0.1, SVG Export Plug-In . SVG Version: 6.00 Build 0)  -->
<svg version="1.1" id="Layer_1" xmlns="http://www.w3.org/2000/svg" xmlns:xlink="http://www.w3.org/1999/xlink" x="0px" y="0px"
	 viewBox="0 0 1737.5 487.7" style="enable-background:new 0 0 1737.5 487.7;" xml:space="preserve">
<style>
                    path, polyline, polygon, line, circle {
                        stroke: #ec4899 !important;
                        stroke-width: 3.5px !important;
                        fill: none !important;
                        stroke-linecap: round !important;
                        stroke-linejoin: round !important;
                        filter: drop-shadow(0px 0px 5px #ec4899) !important;
                    }
                </style>
<style type="text/css">
	.st0{fill:none;stroke:#EC4899;stroke-width:3.5;stroke-linecap:round;stroke-linejoin:round;stroke-miterlimit:10;}
</style>
<title>worldsbk_misano</title>
<path class="st0" d="M952,456.9c36.6-1.9,73.2-4.2,109.8-6.1c117.3-0.1,234.6,0.1,351.9-0.1c21.7-4.9,42.9-12,64.7-16.5
	c5.4-1,11-2.4,16.5-1.6c11.9,3.1,20.1,12.8,30.9,18c19.8,0.4,39.6,0,59.4,0.2c10-0.1,20.1,0.3,30.1-0.2
	c24.3-4.2,47.6-13.9,66.8-28.9c12-9,22.8-19.9,28.7-33.5c7.5-17.2,9.3-36.2,10.1-54.7c0.1-55.1,0-110.2,0-165.4
	c0.3-8.3-0.6-16.5-2.7-24.6c-3.7-13.8-11.8-26.2-23.2-35.5c-12-9.7-26.1-16.8-41.2-20.7c-51-14.7-101.9-29.3-152.9-44
	c-18.9-5.2-39.5-8.5-58.7-2.7c-17.8,5.2-32.1,18.2-41.5,33.2c-8.5,14.8-14.1,32.3-10.3,49.2c3,14.3,13,26.5,25.6,34.5
	c16.8,11,37,15,56.5,19.1c16.9,3.6,33.3,9.4,48.6,17.2c25.7,12.8,46.2,35.3,55.4,61.7c6.2,18,8,38,1.9,56.3
	c-3.9,11.8-12.1,23-24.6,27.5c-12,4.4-25.6,2-36.7-3.7c-77.1-40.4-154.3-80.8-231.4-121.1c-31.7-16.5-63.4-33.1-94.7-50.1
	c-73.1-39-146.7-77.2-219.9-116.1c-10.4-5.5-20.6-11.5-31.6-15.8c-3.8-1.5-8-1.8-12.1-2c-14.3-0.4-28.6,2-41.8,7.3
	c-13.9,5.5-26.9,13.9-36,25.6c-41.8,62.4-83.8,124.7-125.9,186.9c-8.4,10.1-13.4,22.4-14.5,35.3c0.2,12.5,0,25.1,0.1,37.6
	c0.1,13-4.7,26.3-14.2,35.7c-8.9,8.9-21.7,13.9-34.5,14.1c-48.6-0.1-97.3-0.3-146-0.4c-21-0.2-42.5-2-62.2-9.6
	c-12.6-4.7-23.7-12.3-35.3-18.9c-53.5-31.4-107.1-62.8-160.6-94.1c-7.5-4.3-12.5-11.8-14.3-19.9c-3-14,1-28.6,10.8-39.5
	c5.9-6.4,14.5-10.5,23.5-10.3c81.7,0.1,163.4-0.1,245-0.1c24.9,0.2,49.9-8.6,68-25c15.4-13.7,25.8-32.2,30.1-51.9
	c3.6-14.7,3-30.4-2.9-44.4c-6.1-14.9-18.6-26.7-33.4-33.8c-16.5-7.7-34.6-11.4-53-10.9c-110.8-0.1-221.5-0.1-332.3,0
	c-23.1,0.4-46,4.5-67.7,12.1 M253.8,374.8c1.3,19.4,2.9,38.8,4.1,58.3c0.9,9.8,5,19.8,12.9,26.3c9.4,7.8,22,11,34.1,11.8
	c6.2,0.7,12.5,0.2,18.8,0.3c70-0.1,140,0.2,210-0.2c45,0.3,90,0,135,0.1c13.1-0.1,26.1,0.4,39.2-0.6c81.3-4.7,162.7-9.1,244-14.1
	 M252.4,367.2c0.5,2.4,1.1,4.9,1.5,7.3 M116.3,32.2C88.6,44,65.1,63.3,48.5,87.6c-16.8,24.6-25.8,53.5-29,82.6
	c-2.7,25.2,4.1,50.9,17.6,72.6c16.3,26.3,42,47,71.5,58.4c40.1,15.7,80.1,31.6,120.3,47.2c9.8,3.2,19.5,9.1,23.3,18.7 M126.5,27.6
	c-3.3,1.6-6.7,2.9-10,4.3"/>
</svg>
