<?xml version="1.0" encoding="utf-8"?>
<!-- Generator: Adobe Illustrator 22.0.1, SVG Export Plug-In . SVG Version: 6.00 Build 0)  -->
<svg version="1.1" id="Layer_1" xmlns="http://www.w3.org/2000/svg" xmlns:xlink="http://www.w3.org/1999/xlink" x="0px" y="0px"
	 viewBox="0 0 392 165.1" style="enable-background:new 0 0 392 165.1;" xml:space="preserve">
<style>
                    path, polyline, polygon, line, circle {
                        stroke: #ec4899 !important;
                        stroke-width: 3.5px !important;
                        fill: none !important;
                        stroke-linecap: round !important;
                        stroke-linejoin: round !important;
                        filter: drop-shadow(0px 0px 5px #ec4899) !important;
                    }
                </style>
<style type="text/css">
	.st0{fill:none;stroke:#EC4899;stroke-width:3.5;stroke-linecap:round;stroke-linejoin:round;}
</style>
<title>worldsbk_portimao</title>
<polyline class="st0" points="152.1,157.4 52.6,158 29,157.8 26.2,157.2 24,155.2 22,151.7 20.8,147.6 13,127.6 8,113.7 8,109.4 
	9.1,106.4 29.3,71.8 31.8,70.3 34.1,70 36.1,70.3 38.4,71.6 40,74.5 46.7,99.3 48.5,103.2 51.7,107 53.8,108.6 57.6,110.7 
	64.1,112.1 221.7,111.8 228.8,111.6 231.9,109.5 232.8,106.7 232,103.4 229.8,101 224.3,99 182.8,82.7 174.4,79.7 164.2,78.1 
	156.8,78.2 149.8,79.1 103.6,88.6 98.9,88.4 94.2,86.6 90.3,83.9 86.3,78.9 71.6,57.7 71.3,55.1 71.7,52.4 73.6,48.6 76.9,46 
	80.1,45.2 171.9,57.1 176.1,57.5 181.6,56.8 186,56 192.3,52.9 198.6,47.9 233,12 237.5,9.4 244.7,7 255.9,6 260.2,6.6 263.4,8.2 
	265.2,10.2 266.9,13.5 267.9,62.4 268.6,65.8 270.9,70.9 274.7,76.8 279.9,81.7 286.6,85.3 321.9,100.9 325.5,101.4 328.6,100.4 
	332.4,98.2 334.2,94.1 334.5,90.3 333.7,88.4 307.2,50.8 306.2,46.2 306.5,41.6 309.5,36.5 314.9,33.2 320.4,31.2 324,30.8 
	331.2,31.4 335,32.6 339.2,34.6 343,37.9 349.4,45.7 376,83.7 379.5,91.3 381.7,97.7 382.5,102.7 383,110.1 382.4,116.8 
	380.1,124.8 377.2,130.9 373.6,136.7 368.8,142.2 363.3,147.4 356.7,151.1 350.3,154 342.1,156.7 155.3,157.4 152.1,157.4 "/>
</svg>
