<svg id="Layer_1" data-name="Layer 1" xmlns="http://www.w3.org/2000/svg" viewBox="0 0 1278.114 877.021">
<style>
                    path, polyline, polygon, line, circle {
                        stroke: #ec4899 !important;
                        stroke-width: 3.5px !important;
                        fill: none !important;
                        stroke-linecap: round !important;
                        stroke-linejoin: round !important;
                        filter: drop-shadow(0px 0px 5px #ec4899) !important;
                    }
                </style>
<title>worldsbk_magny_cours</title><path d="M1310.156,144.62c-2.611-18.082-9.166-39.32-20.937-52.562-6.6-7.423-17.746-12.583-28.406-8.875-6.665,2.318-11.9,7.4-16.719,12.687s-9.208,10.948-13.031,14.844c-34.2,34.842-64.581,73.146-99.969,105.094-21.124,19.07-44.809,32.678-70.031,47.218-7.7,4.441-19.115,7.336-28.438,8.657-15.941,2.257-33.7-6.217-52.969-10.407-8.572-1.863-18.4-5.777-29-4.875a71.857,71.857,0,0,0-30.906,10.282C816.205,330.431,712.756,397.039,610.188,460.808c-29.74,18.489-59.564,38.239-91.282,48.25-35.4,11.174-72.6,18.682-108.843,29.875-18.078,5.583-38.238,10.2-55.063,20.906-15.6,9.93-29.713,24.428-39.781,39.75-9.064,13.793-15.5,29.955-23.406,42.937-7.592,12.458-13.038,24.522-22.969,29.157-10.437,4.87-25.282,5.742-36.688,2.687-7.862-2.106-14.687-9.035-19.406-17.125-5.64-9.668-10.1-23.172-8.625-33.25,2.5-17.078,9.616-34.68,19.063-50.156,8.5-13.919,21.55-25.989,33.968-38.563,19.53-19.773,39.768-38.974,61.657-55.437,24.36-18.323,47.774-34.5,74.781-47.031,9.4-4.36,33.134-7.393,44.25-6.719,13.412.813,23.508,4.2,38,6.812a163.651,163.651,0,0,0,18.719,2.688c6.883.441,13.989.186,19.968-3.281,53.241-30.873,121.726-76.665,180.844-116.438,29.559-19.886,56.765-38.284,78.5-52.5s38.393-24.4,45.188-27.312c55.186-23.662,138.563-54.97,200.281-89.969,3.672-2.082,8.435-5.866,14.562-11.031s13.425-11.645,21.219-18.719c15.589-14.147,33.176-30.647,47.125-43.594,5.95-5.522,16.037-10.594,20.063-20.656a31.72,31.72,0,0,0,1.875-11.281c.043-4.111-.093-8.195-2.688-11.969a9.327,9.327,0,0,0-4.562-3.469,27.923,27.923,0,0,0-5-1.625,26.834,26.834,0,0,0-6.625-1.031c-.321,0-.641.034-.969.062a13.846,13.846,0,0,0-2.719.5C932.69,72.549,787,110.278,619.594,166.308c-29.047,9.721-81.755,35.84-107.313,52.593C406.255,288.4,325.713,347.457,223.438,421.839c-16.666,12.121-51.074,41.58-64.375,58.375C131.936,514.465,105.141,549.936,80.75,586.4c-16.192,24.208-26.374,45.112-37.781,71.063-4.883,11.109-9.3,27.029-8.5,40,.875,14.22.756,30.671,6.281,45.406,6.025,16.067,16.444,30.311,26.094,43.406,7.569,10.273,17.5,18.865,27.875,25.719,12.388,8.185,25.158,16.375,40.094,21.219,15.991,5.186,33.015,7.223,49.343,7.437,14.615.193,30.5-.727,44.938-6.343a176.446,176.446,0,0,0,44.187-25.719c10.726-8.421,20.924-16.842,30.929-25.223a4.725,4.725,0,0,1,2.991-4.057,5.791,5.791,0,0,1,0-.833q-2.9,2.394-5.758,4.707c.5-.588,1.009-1.186,1.5-1.782,9.265-11.251,14.412-24.586,21.75-35,4.661-6.616,8.922-13.119,14.25-16.656,42.015-27.895,85.581-55.108,129.968-78.719,10.768-5.727,23.877-8.55,36.594-10.218a122.791,122.791,0,0,1,16.781-1.219,53.614,53.614,0,0,1,15.75,2.219c76.546,24.355,152.284,54.284,228.282,82.468,104.742,38.845,209.082,76.681,314.062,115.157,4.9,1.8,10.75,6.42,11.719,8.843a37.364,37.364,0,0,1-.719,7.469c-.781,3.888-2.056,8.026-1.375,12.625a42.744,42.744,0,0,0,2.25,9.344,17.192,17.192,0,0,0,3.719,6l-.66-.183a4.56,4.56,0,0,1,2.195,2.57c3.671,1.015,7.234,2,10.465,2.894,19.528,5.389,39.683,7.537,59.75,9.625,20.718,2.156,42.468.8,60.5-.875a20.846,20.846,0,0,0,12.969-6.656c3.441-3.59,5.967-8.428,5.593-13.906-1.982-29.08-14.884-58.605-20.406-86.782-9.909-50.559-22.024-101.039-27.75-151.531a304.152,304.152,0,0,1,1.469-78.844c3.877-25.591,15.164-50.849,23.719-76.968,21.429-65.43,45.438-130.246,65.843-196.282a703.279,703.279,0,0,0,20.469-83.125C1313.639,184.075,1312.883,163.5,1310.156,144.62Zm-9.875,57.25a693.9,693.9,0,0,1-20.187,81.969c-20.3,65.686-44.273,130.454-65.781,196.125-8.327,25.425-19.968,51.122-24.125,78.562a313.739,313.739,0,0,0-1.5,81.469c5.819,51.317,18.021,102.065,27.875,152.344,5.821,29.7,18.442,58.984,20.25,85.5a9.133,9.133,0,0,1-2.844,6.344,11.98,11.98,0,0,1-6.688,3.593c-17.784,1.657-38.972,2.942-58.531.907-22.593-2.351-46.081-4.6-65.187-11.688-.391-.145-1.221-.907-2-2.906a36.089,36.089,0,0,1-1.657-7.188c-.164-1.107.432-5.111,1.25-9.187s2.163-8.3.219-13.156c-3.082-7.705-10.8-12.021-17.562-14.5-105-38.484-209.334-76.328-314.032-115.157-75.863-28.134-151.734-58.129-228.718-82.625-12.218-3.887-25.3-2.892-36.875-1.375-13.26,1.739-27.47,4.633-39.969,11.282-44.8,23.831-88.639,51.218-130.813,79.218-7.787,5.171-12.444,12.962-16.875,19.25-8.3,11.776-13.433,24.808-21.312,34.375a147.367,147.367,0,0,1-27.781,25.438c-13.336,9.557-27.4,18.865-41.969,24.531-12.436,4.836-27.1,5.842-41.188,5.656-15.59-.2-31.645-2.16-46.375-6.937-13.364-4.334-25.359-11.938-37.656-20.063-9.605-6.346-18.714-14.272-25.375-23.312-9.619-13.054-19.384-26.66-24.75-40.969-4.618-12.315-4.785-27.869-5.687-42.531-.615-9.989,3.394-25.576,7.687-35.344,11.319-25.751,21.142-45.915,36.938-69.531,24.176-36.145,50.815-71.436,77.843-105.563,11.5-14.523,46.792-45.089,62.438-56.468,102.292-74.394,182.61-133.308,288.406-202.657,24.224-15.878,77.7-42.322,105.031-51.468,167.01-55.9,312.521-93.564,481.594-142.875.009,0,.023,0,.031,0a34.782,34.782,0,0,1,5.219.531,19.2,19.2,0,0,1,3.188,1.031,2.371,2.371,0,0,1,.531.313,19.986,19.986,0,0,1,.844,5.875,27.468,27.468,0,0,1-1.157,7.687c-2,5-10.3,10.264-17.593,17.031-13.988,12.983-31.542,29.505-47.032,43.563-7.745,7.029-14.971,13.439-20.937,18.469a118.345,118.345,0,0,1-13.063,9.968c-60.576,34.352-143.683,65.631-199.281,89.469-8.849,3.794-24.88,13.842-46.719,28.125s-49.075,32.682-78.625,52.563c-59.1,39.76-127.535,85.508-180.281,116.093-2.885,1.673-8.315,2.322-14.312,1.938a158.9,158.9,0,0,1-17.563-2.531c-13.769-2.483-24.434-6.044-39.187-6.938-13.358-.809-36.085,1.605-49.063,7.625-27.984,12.982-52,29.621-76.562,48.094-22.507,16.928-43.07,36.48-62.75,56.406-12.178,12.33-25.9,24.8-35.407,40.375-10.035,16.441-17.684,35.164-20.437,53.938-2.037,13.888,3.475,28.694,9.906,39.718,5.543,9.5,13.891,18.68,25.469,21.782,13.818,3.7,30.319,2.824,43.469-3.313,14.336-6.69,20.219-21.442,27.281-33.031,8.541-14.016,14.987-30.052,23.25-42.625,9.293-14.142,22.616-27.8,36.781-36.813,14.82-9.43,34.08-14.054,52.625-19.781,35.6-11,72.822-18.517,108.906-29.906,33.579-10.6,64-30.9,93.563-49.281C718.128,405.483,821.571,338.891,925,275.214a62.775,62.775,0,0,1,26.5-8.844c7.391-.629,16.416,2.6,26.031,4.688,17.572,3.82,36.393,13.378,56.5,10.531,10.134-1.435,22.344-4.339,32-9.906,25.212-14.534,49.629-28.5,71.75-48.469,36.217-32.7,66.705-71.132,100.407-105.469,4.5-4.584,8.852-10.3,13.281-15.156s8.97-8.7,12.625-9.969c5.387-1.874,13.452,1.364,17.656,6.094,9.331,10.5,16.086,30.632,18.5,47.344C1302.866,164.169,1303.534,183.749,1300.281,201.87Z" transform="translate(-34.375 -22.713)"/></svg>