<svg id="svg5223" xmlns="http://www.w3.org/2000/svg" xmlns:xlink="http://www.w3.org/1999/xlink" viewBox="0 0 1345.639 491.906">
<style>
                    path, polyline, polygon, line, circle {
                        stroke: #ec4899 !important;
                        stroke-width: 3.5px !important;
                        fill: none !important;
                        stroke-linecap: round !important;
                        stroke-linejoin: round !important;
                        filter: drop-shadow(0px 0px 5px #ec4899) !important;
                    }
                </style>


<defs><clipPath id="clip-path"><path d="M984.041-389.181"   stroke-miterlimit="10" /></clipPath><clipPath id="clip-path-2"><path d="M-439.895,940.3"   stroke-miterlimit="10"  clip-path="url(#clip-path)"/></clipPath><clipPath id="clip-path-3"><path d="M442.81,1885.718"   stroke-miterlimit="10"  clip-path="url(#clip-path-2)"/></clipPath><clipPath id="clip-path-4"><path d="M1866.746,556.238"   stroke-miterlimit="10"  clip-path="url(#clip-path-3)"/></clipPath><clipPath id="clip-path-5"><path d="M905.11-384.124"   stroke-miterlimit="10"  clip-path="url(#clip-path-4)"/></clipPath><clipPath id="clip-path-6"><path d="M-518.826,945.355"   stroke-miterlimit="10"  clip-path="url(#clip-path-5)"/></clipPath><clipPath id="clip-path-7" transform="translate(-33.854 -58.449)"><path d="M1787.815,561.3"   stroke-miterlimit="10"  clip-path="url(#clip-path-6)"/></clipPath></defs><title>worldsbk_estoril</title><path id="path3827" d="M543.075,543.863c-159.805-.071-314.911-2.061-474.14-2.026-14.792,0-23-6.128-28.47-12.413-4.193-4.814-5.412-14.1-4.12-20.884,1.572-8.252,6.355-15.44,11.217-22.733,8.027-12.04,16.518-22.525,23.264-35.268,12.587-23.777,22.842-49.422,31.149-75.187,12.817-39.755,21.645-78.234,33.12-116.887,5.934-19.988,28.376-23.519,43.806-26.2a1587.77,1587.77,0,0,1,204.9-22.325c8.972-.4,22.68,2.458,27.872,8.593,6.623,7.828,11.532,22.257,9.966,32.7-1.657,11.04-9.461,23.855-18.736,30.849-12.565,9.475-29.385,14.836-45.588,17.961-44.5,8.583-81.122,15.145-123.685,24.283-9.039,1.94-22.561,10.72-27.818,17.729-5.484,7.312-9.217,18.7-8.592,27.927.807,11.9,6.443,25.049,14.384,33.351,7.812,8.167,19.369,18.02,45.438,11.87C343.4,394.757,421.1,378.621,510.852,358.166c24.252-5.527,35.582-2.786,53.937,2.026,138.562,36.326,333.054,86.612,507.179,129.9,30.391,7.555,42.783-3.11,52.181-14.793,7.294-9.068,14.578-27.029,13.311-38.912-1.632-15.3-4.491-32.154-13.012-45.167-11.171-17.062-29.047-35.41-52.045-41.169C944.817,318.172,808.9,284.1,702.64,253.625c-41.531-11.912-43.191-76.684-7.75-98.4,35.667-21.85,78.493-52.348,121.292-75.432,14.37-7.75,33.525-4.588,55.567,3.4,28.756,10.421,59.723,26.837,83.78,40.816,19.823,11.518,41.946-2.3,31.313-22.855-12.168-23.522-.789-48.568,39.578-38.369,26.044,6.581,62.3,38.954,82.7,66.595,10.621,14.39,19.542,29.74,23.794,46.607,6.489,25.739,4.121,65.61,14.112,88.089,7.2,16.189,16.871,22.754,47.614,22.829,28.437.073,59.345-8.384,87.41-1.238,29.579,7.533,57.785,24.684,75.65,48.566,16.148,21.588,21.727,56.5,19.211,83.658-2.942,31.757-17.241,68.634-41.278,88.905-13.784,11.624-50.482,41.261-89.869,41.55C1219.642,548.547,614.862,543.9,543.075,543.863Z" transform="translate(-33.854 -58.449)"   stroke-linejoin="round" /><path id="path2794" d="M543.075,543.863c-159.805-.071-314.911-2.061-474.14-2.026-14.792,0-23-6.128-28.47-12.413-4.193-4.814-5.412-14.1-4.12-20.884,1.572-8.252,6.355-15.44,11.217-22.733,8.027-12.04,16.518-22.525,23.264-35.268,12.587-23.777,22.842-49.422,31.149-75.187,12.817-39.755,21.645-78.234,33.12-116.887,5.934-19.988,28.376-23.519,43.806-26.2a1587.77,1587.77,0,0,1,204.9-22.325c8.972-.4,22.68,2.458,27.872,8.593,6.623,7.828,11.532,22.257,9.966,32.7-1.657,11.04-9.461,23.855-18.736,30.849-12.565,9.475-29.385,14.836-45.588,17.961-44.5,8.583-81.122,15.145-123.685,24.283-9.039,1.94-22.561,10.72-27.818,17.729-5.484,7.312-9.217,18.7-8.592,27.927.807,11.9,6.443,25.049,14.384,33.351,7.812,8.167,19.369,18.02,45.438,11.87C343.4,394.757,421.1,378.621,510.852,358.166c24.252-5.527,35.582-2.786,53.937,2.026,138.562,36.326,333.054,86.612,507.179,129.9,30.391,7.555,42.783-3.11,52.181-14.793,7.294-9.068,14.578-27.029,13.311-38.912-1.632-15.3-4.491-32.154-13.012-45.167-11.171-17.062-29.047-35.41-52.045-41.169C944.817,318.172,808.9,284.1,702.64,253.625c-41.531-11.912-43.191-76.684-7.75-98.4,35.667-21.85,78.493-52.348,121.292-75.432,14.37-7.75,33.525-4.588,55.567,3.4,28.756,10.421,59.723,26.837,83.78,40.816,19.823,11.518,41.946-2.3,31.313-22.855-12.168-23.522-.789-48.568,39.578-38.369,26.044,6.581,62.3,38.954,82.7,66.595,10.621,14.39,19.542,29.74,23.794,46.607,6.489,25.739,4.121,65.61,14.112,88.089,7.2,16.189,16.871,22.754,47.614,22.829,28.437.073,59.345-8.384,87.41-1.238,29.579,7.533,57.785,24.684,75.65,48.566,16.148,21.588,21.727,56.5,19.211,83.658-2.942,31.757-17.241,68.634-41.278,88.905-13.784,11.624-50.482,41.261-89.869,41.55C1219.642,548.547,614.862,543.9,543.075,543.863Z" transform="translate(-33.854 -58.449)"   stroke-linejoin="round" /><g id="layer1"><g id="g4801" style="isolation:isolate"><g clip-path="url(#clip-path-7)"><polygon id="rect4262" points="187.078 544.02 187.078 544.02 187.078 544.02 187.078 544.02"   stroke-miterlimit="10" /></g><path d="M984.041-389.181" transform="translate(-33.854 -58.449)"   stroke-miterlimit="10" /><path d="M-439.895,940.3" transform="translate(-33.854 -58.449)"   stroke-miterlimit="10" /><path d="M442.81,1885.718" transform="translate(-33.854 -58.449)"   stroke-miterlimit="10" /><path d="M1866.746,556.238" transform="translate(-33.854 -58.449)"   stroke-miterlimit="10" /><path d="M905.11-384.124" transform="translate(-33.854 -58.449)"   stroke-miterlimit="10" /><path d="M-518.826,945.355" transform="translate(-33.854 -58.449)"   stroke-miterlimit="10" /><path d="M1787.815,561.3" transform="translate(-33.854 -58.449)"   stroke-miterlimit="10" /></g></g></svg>