<svg id="svg2" xmlns="http://www.w3.org/2000/svg" viewBox="0 0 966.487 635.896">
<style>
                    path, polyline, polygon, line, circle {
                        stroke: #ec4899 !important;
                        stroke-width: 3.5px !important;
                        fill: none !important;
                        stroke-linecap: round !important;
                        stroke-linejoin: round !important;
                        filter: drop-shadow(0px 0px 5px #ec4899) !important;
                    }
                </style>


<title>worldsbk_aragon</title><g id="layer1"><g id="g2384"><path id="path2366" d="M327.733,463.054,965.922,666.731c8.215,3.188,13.511,1.92,15.011-1.334,2.2-4.763-.729-10.49-8.978-14.18L946.1,636.566c-7.99-5.021-9.585-12.6-12.066-19.823l-11.2-76.706c-1.656-7.757-4.608-15.513-14.221-23.27L628.5,302.163c-20.131-10.944-29.606,30.154-57.207,53.68-38.765,40.738-77.952,8.84-143.216-9.142-24.457-10.32-26.528-24.215-31.081-42.05L377.5,200.438c-2.552-16.088-9.027-26.786-20.112-35.347l-40.222-26.814c-9.392-7.232-27.567-1.983-31.69,14.626l-9.751,53.63c-1.422,7.689-4.672,14.829-9.751,23.158-13.521,22.247-36.656,45.446-75.726,65.577-25.172,10.58-31.334.121-36.2-20.685L123.881,123.757c-2.169-13.362,3.6-24.042,13.5-28.75l16.455-7.313c12.764-6.439,10.274-18.365-3.047-30.472C107.219,20.164,22.913,32.935,19.152,98.054c4.339,98.358,38.928,196.127,103.279,262.388,9.143,9.486,15.147,8.573,25.311,5.152L195.277,340c26.871-13,47.046-5.772,61.553,5.485l59.114,43.878c10.918,8.736,18.82,15.747,14.017,26.206L319.6,443.6c-1.048,6.753-6.045,13.788,8.132,19.453Z" transform="translate(-17.15 -34.68)"   /></g></g></svg>