<svg id="Layer_1" data-name="Layer 1" xmlns="http://www.w3.org/2000/svg" viewBox="0 0 1350.253 823.709">
<style>
                    path, polyline, polygon, line, circle {
                        stroke: #ec4899 !important;
                        stroke-width: 3.5px !important;
                        fill: none !important;
                        stroke-linecap: round !important;
                        stroke-linejoin: round !important;
                        filter: drop-shadow(0px 0px 5px #ec4899) !important;
                    }
                </style>
<title>worldsbk_assen</title><path d="M320.5,412.205c-98.552-62.922-194.889-123.76-292.687-188.128-5.172-3.4-8.421-16.295-6.511-22.133,12.434-38,22.011-64.451,34.921-100.794,3.658-10.3,14.18-16.916,20.716-20.039C113.805,63.5,149.58,48.452,184.364,32.06c6.722-3.167,19.2-2.02,26.043.6,7.753,2.964,16.732,9.49,21.308,16.15,5.289,7.7,7.917,18.714,8.287,28.414a80.506,80.506,0,0,1-5.919,32.3c-3.463,8.841-8.806,19.566-16.573,23.927-9.99,5.609-24.539,6.665-36.7,5.982-16.253-.913-32.86-8.92-48.239-8.375-7.113.253-14.411,5.195-19.236,10.768-3.461,4-4.886,10.826-3.847,15.552,1.328,6.042,10.085,13.555,16.573,15.254,24.372,6.383,47.112,11.676,73.689,13.459,24.344,1.633,49.674-5.5,73.394,0,72.33,16.771,144.388,32.465,215.446,52.64,46.924,13.323,91.732,31.1,138.2,46.06,34.023,10.956,65.6,20.21,99.437,31.106,13.109,4.221,19.729,16.777,23.971,26.918,4.539,10.848,8.626,24.543,16.573,33.8,10.2,11.882,24.1,21.46,38.769,25.722,16.9,4.91,36.8,4.37,54.749.3,43.6-9.887,82.968-25.467,126.663-37.685,15.009-4.2,27.83-2.677,37.881,1.794,8.834,3.93,19.547,12,22.2,20.936,15,50.58,34.625,93.29,52.382,140.573,20.87,55.577,40.669,109.657,57.412,164.8,3.42,11.264,23.126,22.528,30.778,21.834,46.179-4.187,81.917-15.387,130.511-18.544,6.648-.432,18.334.614,23.379,4.786,7.977,6.6,16.529,15.914,18.349,25.721,2.915,15.715.064,35.841-5.919,51.444-6.25,16.3-18.274,32.106-30.778,44.266-8.409,8.178-20.631,13.5-31.962,16.749-12.345,3.535-26.312,5.983-39.064,3.589-59.458-11.164-120.469-25.25-177.566-44.266-12.351-4.113-21.525-15.648-30.778-25.123-49.936-51.141-101.022-102.271-146.787-156.724-9.872-11.746-13.346-27.95-20.124-41.873-5.454-11.2-9.457-23.467-16.573-33.5-7.878-11.105-18.08-20.892-28.41-29.909-24.394-21.291-48.292-45.679-75.762-61.015-13.962-7.794-32.748-11.814-48.535-8.374-70.234,15.3-140.852,50.511-209.527,64.6-9.06,1.859-17.127-9.912-23.675-16.75-5.29-5.524-3.613-13.854-9.766-17.048-8.447-4.383-20.83-1.712-31.37-3.29-10.768-1.612-24.944-6.824-34.625-11.664C371.612,444.461,346.242,428.642,320.5,412.205Z" transform="translate(-15.747 -25.142)"   stroke-linecap="round" stroke-linejoin="round" /></svg>